<svg width="44" height="43" viewBox="0 0 44 43" fill="none" xmlns="http://www.w3.org/2000/svg">
<path opacity="0.15" d="M44 17.4126C44 16.4822 43.9495 15.5636 43.8537 14.659L43.8205 14.6702L43.8464 14.5918C43.8404 14.5343 43.8336 14.4767 43.8267 14.4192L43.6361 14.4837L43.7284 14.2035L43.452 14.2969L43.544 14.0172L43.2674 14.1106L43.3599 13.8307L43.083 13.9241L43.1751 13.6439L42.8984 13.7373L42.9907 13.4572L42.714 13.5506L42.8063 13.2707L42.5299 13.3638L42.6219 13.0844L42.345 13.1775L42.4373 12.8974L42.1607 12.9908L42.253 12.7109L41.9763 12.8042L42.0684 12.5243L41.7917 12.6175L41.884 12.3378L41.6073 12.4312L41.6996 12.151L41.4227 12.2446L41.5148 11.9645L41.2383 12.0577L41.3306 11.778L41.0542 11.8711L41.1463 11.5912L40.8696 11.6846L40.9617 11.4047L40.6852 11.4981L40.7775 11.2182L40.5008 11.3113L40.5929 11.0316L40.3162 11.125L40.4085 10.8451L40.1316 10.9385L40.2239 10.6584L39.9473 10.7517L40.0393 10.4718L39.7629 10.5648L39.8552 10.2851L39.5785 10.3785L39.6708 10.0985L39.3941 10.1919L39.4862 9.9118L39.2093 10.0052L39.3016 9.72527L39.0249 9.81864L39.1172 9.53874L38.8408 9.63212L38.9329 9.35221L38.656 9.44581L38.7485 9.16568L38.4718 9.25883L38.5639 8.97915L38.2872 9.0723L38.3795 8.7924L38.1028 8.88577L38.1951 8.60609L37.9185 8.69925L38.0105 8.41956L37.7339 8.51271L37.8262 8.23259L37.5495 8.32596L37.6418 8.04606L37.3651 8.13943L37.4572 7.85953L37.1805 7.95268L37.2728 7.673L36.9959 7.76638L37.0882 7.48625L36.8118 7.57962L36.9038 7.29994L36.6272 7.39332L36.7197 7.11341L36.443 7.20656L36.5351 6.92666L36.2584 7.02003L36.3507 6.74013L36.0738 6.83373L36.1661 6.5536L35.8897 6.64675L35.9817 6.3673L35.7051 6.46045L35.7974 6.18054L35.5207 6.27392L35.613 5.99424L35.3363 6.08761L35.4284 5.80771L35.1515 5.90086L35.2438 5.62073L34.9673 5.71388L35.0596 5.4342L34.783 5.52758L34.875 5.24745L34.5981 5.34083L34.6904 5.06092L34.4142 5.15407L34.5063 4.87439L34.2294 4.96799L34.3217 4.68786L34.045 4.78124L34.1375 4.50156L33.8606 4.59493L33.9527 4.31503L33.676 4.4084L33.7683 4.12827L33.4917 4.22165L33.584 3.94175L29.4033 5.35135L29.3404 5.22394L29.2944 5.31731L29.156 5.03741L29.1098 5.13078L28.9714 4.8511L28.9254 4.94448L28.7871 4.66479L28.741 4.75795L28.6027 4.47804L28.5567 4.57142L28.4183 4.29151L28.3723 4.38489L28.2339 4.10498L28.1877 4.19814L28.0496 3.91846L28.0035 4.01183L27.865 3.7317L27.8189 3.82508L27.6804 3.54495L27.6341 3.63833L27.496 3.35865L27.4499 3.45202L27.3116 3.17189L27.2656 3.26527L27.1272 2.98536L27.081 3.07874L26.9426 2.79861L26.8966 2.89199L26.7583 2.61208L26.7122 2.70546L26.5739 2.42555L26.5274 2.51915L26.3893 2.23902L26.3432 2.33218L26.2051 2.05249L26.1589 2.14587L26.0205 1.86596L25.9745 1.95956L25.8359 1.67943L25.7899 1.77236L25.6518 1.49268L25.6055 1.58606L25.4672 1.30615L25.4211 1.39953L25.2826 1.1194L25.2365 1.21255L25.0984 0.932869L25.0522 1.02625L24.9136 0.746117L24.8676 0.839269L24.7292 0.559589L24.6832 0.652964L24.5449 0.373058L24.4986 0.466436L24.3603 0.186531L24.3142 0.279906L24.1761 0L21.3359 5.74658C21.1517 5.81532 20.9711 5.89257 20.7934 5.97431L14.7678 3.94242L16.6317 9.59897C15.4901 8.93436 14.168 8.5519 12.7561 8.5519C8.45431 8.5519 4.9671 12.0798 4.9671 16.4316C4.9671 16.4638 4.96931 16.4958 4.96975 16.5281C2.44869 16.9815 0.47013 19.0186 0.0739309 21.5865V21.5863C0.0737096 21.5868 0.073708 21.5874 0.073708 21.5881C0.0504673 21.7388 0.032318 21.8911 0.0203656 22.0454C0.0194803 22.0548 0.0192583 22.0644 0.018373 22.074C0.00708462 22.2261 0 22.3797 0 22.5346C0 24.2674 0.714928 25.8304 1.86125 26.9412C1.92145 27.0046 1.98299 27.0671 2.04563 27.128C2.10583 27.1914 2.16714 27.2536 2.23001 27.3143C2.28999 27.3779 2.35152 27.4399 2.41416 27.5006C2.47436 27.5647 2.53634 27.6269 2.59942 27.688C2.65941 27.7514 2.72049 27.8134 2.78313 27.8741C2.84356 27.9377 2.90509 28.0002 2.96817 28.0611C3.02816 28.1245 3.08947 28.1867 3.15211 28.2472C3.21253 28.3112 3.27429 28.3735 3.33737 28.4346C3.39713 28.4978 3.45844 28.5598 3.52086 28.6202C3.58084 28.6836 3.64215 28.7456 3.70479 28.8065C3.76544 28.8706 3.82719 28.9331 3.8905 28.9942C3.9507 29.0578 4.01223 29.1198 4.07487 29.1809C4.13486 29.2441 4.19595 29.3059 4.25837 29.3666C4.31857 29.4304 4.37988 29.4922 4.44275 29.5531C4.49653 29.6098 4.55208 29.6648 4.60786 29.7195C4.67448 29.7905 4.74266 29.8597 4.81238 29.9273C4.87236 29.9904 4.93345 30.0525 4.99587 30.1127C5.05652 30.177 5.11849 30.2394 5.1818 30.3006C5.24156 30.3637 5.30243 30.4253 5.36462 30.4858C5.42483 30.5493 5.48659 30.6118 5.54945 30.673C5.60367 30.7303 5.65967 30.7854 5.71589 30.8405C5.78185 30.9108 5.84936 30.9793 5.91842 31.0462C5.97884 31.1101 6.0406 31.1723 6.10346 31.2334C6.16322 31.2961 6.22386 31.3577 6.28606 31.4182C6.34671 31.4824 6.40891 31.5451 6.47221 31.6065C6.53241 31.6701 6.59372 31.7319 6.65636 31.7928C6.71635 31.8562 6.77744 31.9182 6.8403 31.9787C6.90073 32.0427 6.9627 32.1052 7.02578 32.1665C7.08554 32.2295 7.14641 32.2913 7.20905 32.3519C7.26992 32.4162 7.33212 32.4789 7.39586 32.5405C7.45518 32.6032 7.51561 32.6645 7.57759 32.7246C7.63845 32.7888 7.70065 32.8517 7.76417 32.9133C7.82393 32.9765 7.88481 33.038 7.947 33.0985C8.00057 33.1549 8.05612 33.2098 8.11168 33.2642C8.1783 33.3352 8.24647 33.4044 8.31641 33.4722C8.37662 33.5361 8.43793 33.5981 8.50079 33.6588C8.56078 33.7224 8.62231 33.7846 8.68495 33.8453C8.74537 33.9089 8.80669 33.9711 8.86933 34.032C8.92975 34.0959 8.99151 34.1583 9.05459 34.2195C9.11435 34.2826 9.17522 34.3442 9.23764 34.4049C9.29806 34.4687 9.35982 34.5312 9.4229 34.5921C9.48288 34.6552 9.54375 34.717 9.60616 34.7775C9.66703 34.8418 9.72901 34.9045 9.79231 34.9658C9.85252 35.0294 9.91428 35.0917 9.97714 35.1526C10.0367 35.2155 10.0975 35.2768 10.1595 35.3371C10.2202 35.4011 10.2821 35.4638 10.3452 35.5249C10.405 35.5881 10.4661 35.6499 10.5285 35.7106C10.5889 35.7742 10.6507 35.8367 10.7135 35.8978C10.7675 35.9547 10.8233 36.0097 10.8793 36.0644C10.9455 36.1347 11.013 36.2037 11.0825 36.2708C11.1429 36.3349 11.2049 36.3971 11.2678 36.4583C11.3275 36.5214 11.3886 36.5832 11.451 36.6437C11.5112 36.7073 11.573 36.77 11.6361 36.8309C11.6958 36.8942 11.7571 36.9561 11.8198 37.0167C11.88 37.0803 11.9413 37.1426 12.0042 37.2033C12.0644 37.2669 12.1259 37.3293 12.189 37.3902C12.249 37.4538 12.3105 37.5159 12.3731 37.5765C12.4338 37.6408 12.4962 37.7035 12.5595 37.7651C12.6193 37.828 12.6801 37.8896 12.7423 37.9501C12.8025 38.0134 12.8639 38.0757 12.9267 38.1364C12.9867 38.2 13.0482 38.262 13.1109 38.3229C13.1711 38.3865 13.2326 38.4487 13.2955 38.5096C13.3557 38.5732 13.4172 38.6355 13.4801 38.6964C13.5403 38.7602 13.6018 38.8225 13.6649 38.8834C13.7246 38.9465 13.7857 39.0083 13.8482 39.069C13.9088 39.133 13.9708 39.1955 14.0339 39.2569C14.0938 39.3202 14.1549 39.3823 14.2176 39.4427C14.2778 39.5063 14.3391 39.5684 14.4019 39.629C14.4622 39.6929 14.5237 39.7549 14.5865 39.816C14.6467 39.8796 14.7083 39.9416 14.7709 40.0025C14.8311 40.0661 14.8927 40.1282 14.9553 40.1889C15.0153 40.2527 15.0768 40.3147 15.1397 40.3758C15.1999 40.4394 15.2612 40.5014 15.324 40.5624C15.3843 40.6259 15.4458 40.6882 15.5086 40.7491C15.5686 40.8127 15.6302 40.8747 15.6928 40.9356C15.7532 40.9995 15.815 41.0617 15.8778 41.1228C15.9376 41.186 15.9987 41.2476 16.0611 41.308C16.1213 41.3716 16.1831 41.4341 16.2459 41.495C16.3064 41.5588 16.3681 41.6213 16.4312 41.6824C16.4912 41.7458 16.5525 41.8076 16.6149 41.8683C16.6753 41.9319 16.7369 41.9944 16.7999 42.0553C16.8599 42.1186 16.921 42.1807 16.9837 42.2411C17.0379 42.2984 17.0941 42.3538 17.1503 42.4091C17.2158 42.4789 17.2829 42.547 17.3515 42.6135C17.4122 42.6778 17.4744 42.7405 17.5379 42.8018C17.5948 42.8621 17.653 42.9207 17.7123 42.9785C18.0428 42.9915 18.3739 43 18.7075 43C32.6769 42.9987 44 31.5434 44 17.4126Z" fill="url(#paint0_linear_228_744)"/>
<path d="M24.176 0.20752L21.1388 6.32677H27.2132L24.176 0.20752Z" fill="#FFB936"/>
<path d="M24.176 27.0121L27.2132 20.8926H21.1388L24.176 27.0121Z" fill="#FFB936"/>
<path d="M33.5838 4.13303L27.1404 6.29645L31.4355 10.6235L33.5838 4.13303Z" fill="#FFB936"/>
<path d="M14.7679 23.0866L21.2116 20.9231L16.9156 16.5958L14.7679 23.0866Z" fill="#FFB936"/>
<path d="M37.4805 13.6099L31.4054 10.5502V16.6694L37.4805 13.6099Z" fill="#FFB936"/>
<path d="M10.8711 13.6097L16.946 16.6694V10.5499L10.8711 13.6097Z" fill="#FFB936"/>
<path d="M33.5833 23.0868L31.4354 16.5961L27.1401 20.9231L33.5833 23.0868Z" fill="#FFB936"/>
<path d="M14.7677 4.13303L16.9156 10.6237L21.2113 6.29645L14.7677 4.13303Z" fill="#FFB936"/>
<path d="M32.3707 13.6746C32.3707 18.2333 28.7018 21.9294 24.1761 21.9294C19.6501 21.9294 15.9812 18.2333 15.9812 13.6746C15.9812 9.11561 19.6501 5.41953 24.1761 5.41953C28.7018 5.41953 32.3707 9.11561 32.3707 13.6746Z" fill="#FFB936"/>
<path d="M32.3707 13.6746C32.3707 18.2333 28.7018 21.9294 24.1761 21.9294C19.6501 21.9294 15.9812 18.2333 15.9812 13.6746C15.9812 9.11561 19.6501 5.41953 24.1761 5.41953C28.7018 5.41953 32.3707 9.11561 32.3707 13.6746Z" fill="#FFA600"/>
<path d="M30.972 13.6746C30.972 17.4554 27.9294 20.5207 24.176 20.5207C20.4223 20.5207 17.3795 17.4554 17.3795 13.6746C17.3795 9.89353 20.4223 6.82822 24.176 6.82822C27.9294 6.82822 30.972 9.89353 30.972 13.6746Z" fill="#FFB936"/>
<path opacity="0.05" d="M29.4892 7.39278C30.7101 8.83446 31.4485 10.7027 31.4485 12.7457C31.4485 17.3044 27.7796 21.0005 23.2539 21.0005C21.226 21.0005 19.3712 20.2567 17.9404 19.0273C19.4433 20.8023 21.6784 21.9294 24.1762 21.9294C28.7017 21.9294 32.3709 18.2333 32.3709 13.6746C32.3706 11.1586 31.2518 8.90693 29.4892 7.39278Z" fill="#303030"/>
<path d="M30.3538 16.5979C29.5964 13.0639 26.477 10.415 22.7422 10.415C21.2742 10.415 19.9017 10.8246 18.7297 11.5357C17.3012 9.81661 15.1555 8.72275 12.756 8.72275C8.45427 8.72275 4.96707 12.2356 4.96707 16.5686C4.96707 16.6007 4.96929 16.6326 4.96973 16.6647C2.145 17.1706 0 19.6549 0 22.6455C0 26.0016 2.70079 28.7222 6.03238 28.7222H29.7679C33.0997 28.7222 35.8003 26.0016 35.8003 22.6455C35.8007 19.4886 33.4105 16.8944 30.3538 16.5979Z" fill="white"/>
<path opacity="0.05" d="M29.7684 26.8277H6.03262C3.02197 26.8277 0.527035 24.6058 0.0741747 21.7013C0.0265868 22.0092 0.000244141 22.3242 0.000244141 22.6455C0.000244141 26.0016 2.70102 28.7222 6.03262 28.7222H29.7681C33.1 28.7222 35.8005 26.0016 35.8005 22.6455C35.8005 22.3242 35.7746 22.0087 35.7266 21.7008C35.2742 24.6056 32.7792 26.8277 29.7684 26.8277Z" fill="#303030"/>
<defs>
<linearGradient id="paint0_linear_228_744" x1="20.2182" y1="17.9655" x2="37.4258" y2="34.9746" gradientUnits="userSpaceOnUse">
<stop/>
<stop offset="1" stop-opacity="0"/>
</linearGradient>
</defs>
</svg>
