<svg width="280" height="280" viewBox="0 0 280 280" fill="none" xmlns="http://www.w3.org/2000/svg">
<path d="M263.717 156.831C255.473 178.913 238.627 202.814 214.921 209.89C179.103 220.585 174.824 249.456 110.671 246.779C100.668 246.362 91.4228 244.955 82.9293 242.711C78.3636 241.504 74.0141 240.049 69.8864 238.372C32.4072 223.192 12.8565 189.782 11.2336 154.824C9.09107 108.847 41.1712 86.9316 62.02 74.0998C82.8694 61.2679 107.997 11.5472 171.086 13.6836C180.704 14.0134 190.301 15.3283 199.6 17.8489C220.828 23.5939 242.407 36.3014 254.947 54.8783C255.889 56.2738 256.786 57.7024 257.647 59.1573C274.428 87.6299 274.958 126.726 263.717 156.831Z" fill="#865DFF"/>
<path opacity="0.7" d="M263.717 156.831C255.473 178.913 238.627 202.814 214.921 209.89C179.103 220.585 174.824 249.456 110.671 246.779C100.668 246.362 91.4228 244.955 82.9293 242.711C78.3636 241.504 74.0141 240.049 69.8864 238.372C32.4072 223.192 12.8565 189.782 11.2336 154.824C9.09107 108.847 41.1712 86.9316 62.02 74.0998C82.8694 61.2679 107.997 11.5472 171.086 13.6836C180.704 14.0134 190.301 15.3283 199.6 17.8489C220.828 23.5939 242.407 36.3014 254.947 54.8783C255.889 56.2738 256.786 57.7024 257.647 59.1573C274.428 87.6299 274.958 126.726 263.717 156.831Z" fill="#FFA3FD"/>
<path d="M140.279 176.801C133.769 162.017 134.728 137.805 137.748 135.791C141.071 133.576 146.331 144.927 151.591 141.605C156.851 138.282 160.45 131.085 156.02 119.734C151.591 108.382 145.777 115.858 141.624 118.626C137.471 121.395 134.149 118.903 134.98 108.937C135.592 101.587 138.461 88.0734 139.927 81.4789C140.587 81.7645 141.246 82.0523 141.901 82.3586C128.889 76.2681 114.493 74.3299 108.402 76.2681C102.312 78.2057 103.418 78.7595 106.463 85.955C112.815 100.968 88.7566 106.128 81.8109 94.5521C77.6579 87.6305 83.7619 83.743 82.101 78.7595C80.44 73.7761 49.7095 79.59 45.8337 81.8048C45.8337 81.8048 53.3086 104.23 52.2015 112.259C51.0938 120.287 47.218 123.887 41.4041 118.073C35.5902 112.259 28.1153 117.519 27.8387 127.208C27.562 136.898 29.223 144.65 35.8674 142.435C42.5118 140.221 47.7719 132.192 49.9867 142.435C52.2015 152.679 48.3257 165.968 46.1109 175.381C46.1109 175.381 63.5527 182.856 71.5814 182.302C79.6101 181.748 84.5935 181.471 82.1015 176.488C79.6101 171.504 75.4571 168.183 78.5024 162.645C81.5477 157.108 93.7294 157.662 100.097 159.046C106.464 160.43 109.232 165.137 107.295 170.397C105.357 175.657 102.035 180.918 108.125 182.025C113.866 183.069 128.462 180.668 142.871 175.984C142.007 176.264 141.142 176.537 140.279 176.801Z" stroke="#263238" stroke-miterlimit="10"/>
<path d="M145.5 175.104C144.648 175.398 143.793 175.684 142.938 175.962C143.793 175.683 144.648 175.398 145.5 175.104Z" stroke="#263238" stroke-miterlimit="10"/>
<path d="M246.551 115.581C241.291 115.581 241.013 119.734 235.477 118.903C229.939 118.073 229.386 105.337 235.2 82.9125C235.2 82.9125 228.832 87.6187 214.436 87.8959C200.04 88.1726 194.226 86.5116 197.825 81.2515C201.424 75.9914 204.193 71.8385 201.148 67.6855C198.102 63.5326 183.429 64.0864 178.722 67.6855C174.016 71.2846 177.338 75.4376 180.66 80.1438C183.982 84.8501 180.107 87.6187 174.57 87.8959C169.033 88.1726 154.913 88.4498 141.902 82.3586C141.247 82.0523 140.587 81.7639 139.927 81.4789C138.462 88.0734 135.593 101.587 134.98 108.937C134.15 118.904 137.472 121.395 141.625 118.626C145.778 115.858 151.591 108.383 156.021 119.734C160.451 131.084 156.852 138.282 151.591 141.605C146.331 144.927 141.071 133.576 137.749 135.791C134.728 137.805 133.769 162.017 140.279 176.801C142.02 176.268 143.765 175.703 145.5 175.104C160.727 169.844 175.954 167.352 178.722 170.951C181.491 174.55 180.383 173.996 176.784 179.533C173.185 185.07 173.462 189.777 179.553 192.545C185.643 195.314 200.594 194.76 201.977 188.392C203.362 182.025 195.61 178.426 199.209 172.335C202.808 166.244 234.646 175.104 234.646 175.104C234.646 175.104 227.447 150.741 230.216 142.712C232.985 134.683 235.199 136.622 239.629 139.667C244.059 142.712 249.873 142.435 252.087 133.576C254.303 124.716 251.811 115.581 246.551 115.581Z" stroke="#263238" stroke-miterlimit="10"/>
<path d="M230.079 56.8831C237.127 53.5569 240.144 45.1475 236.817 38.1001C233.491 31.0527 225.082 28.036 218.034 31.3621C210.987 34.6883 207.97 43.0977 211.296 50.1451C214.623 57.1925 223.032 60.2092 230.079 56.8831Z" fill="#865DFF" stroke="#263238" stroke-miterlimit="10"/>
<path d="M225.254 55.662C231.628 55.0078 236.264 49.3106 235.61 42.9369C234.956 36.5632 229.259 31.9266 222.885 32.5807C216.511 33.2349 211.875 38.9321 212.529 45.3058C213.183 51.6795 218.88 56.3162 225.254 55.662Z" fill="white" stroke="#263238" stroke-miterlimit="10"/>
<path d="M227.691 51.7453C231.905 49.7405 233.696 44.6991 231.691 40.485C229.686 36.271 224.645 34.4801 220.431 36.4849C216.217 38.4897 214.426 43.5311 216.431 47.7451C218.435 51.9592 223.477 53.7501 227.691 51.7453Z" fill="#865DFF" stroke="#263238" stroke-miterlimit="10"/>
<path d="M229.399 44.1134C229.399 41.1673 227.011 38.7789 224.065 38.7789C221.118 38.7789 218.73 41.1673 218.73 44.1134C218.73 47.0596 221.118 49.448 224.065 49.448C227.011 49.448 229.399 47.0596 229.399 44.1134Z" fill="white" stroke="#263238" stroke-miterlimit="10"/>
<path d="M226.534 44.1134C226.534 42.7493 225.428 41.6438 224.065 41.6438C222.7 41.6438 221.595 42.7498 221.595 44.1134C221.595 45.477 222.701 46.583 224.065 46.583C225.429 46.5836 226.534 45.4776 226.534 44.1134Z" fill="#865DFF" stroke="#263238" stroke-miterlimit="10"/>
<path d="M225.084 40.2416L224.064 44.1134L227.72 44.9142L225.084 40.2416Z" fill="#263238" stroke="#263238" stroke-miterlimit="10"/>
<path d="M226.642 42.3982L242.697 33.6515" stroke="#263238" stroke-width="2" stroke-miterlimit="10"/>
<path d="M237.545 36.5271L237.784 32.3338L245.333 28.0202V32.8132L237.545 36.5271Z" fill="#263238" stroke="#263238" stroke-miterlimit="10"/>
<path d="M248.568 35.0896L245.263 32.6519L237.515 36.727L241.246 38.8858L248.568 35.0896Z" fill="#263238" stroke="#263238" stroke-miterlimit="10"/>
<path d="M150.086 44.9674H144.473V58.3302H150.086V44.9674Z" fill="#865DFF" stroke="#263238" stroke-miterlimit="10"/>
<path d="M158.36 40.9186H152.747V58.3302H158.36V40.9186Z" fill="#865DFF" stroke="#263238" stroke-miterlimit="10"/>
<path d="M166.633 44.9674H161.02V58.3302H166.633V44.9674Z" fill="#865DFF" stroke="#263238" stroke-miterlimit="10"/>
<path d="M174.905 40.0389H169.292V58.3302H174.905V40.0389Z" fill="#865DFF" stroke="#263238" stroke-miterlimit="10"/>
<path d="M183.178 33.3502H177.565V58.3307H183.178V33.3502Z" fill="#865DFF" stroke="#263238" stroke-miterlimit="10"/>
<path d="M175.727 22.7629L177.917 23.6992L163.026 37.9898L155.915 34.1107L144.649 40.959V43.027L155.962 36.1497L163.316 40.161L179.14 24.9743L179.986 27.2009L183.117 19.9338L175.727 22.7629Z" fill="#263238" stroke="#263238" stroke-miterlimit="10" stroke-linecap="round" stroke-linejoin="round"/>
<path d="M110.394 57.764C117.98 55.9832 122.687 48.3894 120.906 40.8027C119.125 33.216 111.532 28.5093 103.945 30.2901C96.3582 32.0708 91.6516 39.6647 93.4323 47.2514C95.2131 54.8381 102.807 59.5447 110.394 57.764Z" fill="white" stroke="#263238" stroke-miterlimit="10"/>
<path d="M109.965 56.2592C116.719 54.717 120.945 47.9914 119.402 41.2371C117.86 34.4828 111.135 30.2576 104.38 31.7998C97.6261 33.342 93.4008 40.0676 94.9431 46.8219C96.4853 53.5762 103.211 57.8014 109.965 56.2592Z" fill="#865DFF" stroke="#263238" stroke-miterlimit="10"/>
<path d="M108.895 55.2979C115.073 54.3408 119.305 48.5566 118.348 42.3786C117.391 36.2006 111.607 31.9683 105.429 32.9254C99.2507 33.8826 95.0184 39.6667 95.9755 45.8447C96.9326 52.0227 102.717 56.2551 108.895 55.2979Z" fill="white" stroke="#263238" stroke-miterlimit="10"/>
<path d="M107.001 53.7958V51.9988C105.674 51.9473 104.682 51.5222 104.024 50.7231C103.367 49.9246 103.013 48.7329 102.962 47.1475L105.686 46.6838C105.712 47.3278 105.78 47.866 105.889 48.2972C105.999 48.729 106.162 49.051 106.382 49.2638C106.601 49.4766 106.884 49.5824 107.232 49.5824C107.631 49.5824 107.905 49.4536 108.054 49.196C108.201 48.9384 108.276 48.6422 108.276 48.3073C108.276 47.6498 108.124 47.0994 107.822 46.6547C107.519 46.2101 107.103 45.7626 106.575 45.3118L104.932 43.9012C104.558 43.5534 104.224 43.199 103.927 42.8383C103.631 42.4777 103.395 42.0655 103.222 41.6018C103.048 41.1376 102.961 40.5905 102.961 39.9588C102.961 38.7481 103.305 37.8039 103.995 37.1274C104.684 36.451 105.609 36.0679 106.768 35.9778V34.2574H107.696V35.9778C108.391 36.0164 108.961 36.1743 109.406 36.451C109.851 36.7282 110.189 37.0759 110.421 37.4948C110.653 37.9137 110.82 38.3712 110.923 38.8668C111.026 39.363 111.09 39.8429 111.116 40.3066L108.353 40.7126C108.34 40.236 108.301 39.8143 108.237 39.447C108.172 39.0796 108.056 38.7929 107.889 38.5868C107.721 38.3807 107.464 38.2838 107.116 38.2967C106.755 38.3096 106.482 38.4513 106.295 38.7218C106.108 38.9922 106.015 39.2952 106.015 39.6301C106.015 40.2231 106.156 40.6997 106.44 41.0603C106.723 41.4215 107.045 41.7687 107.406 42.1042L109.01 43.4958C109.435 43.8822 109.828 44.301 110.189 44.7518C110.55 45.2032 110.84 45.7022 111.059 46.2498C111.278 46.7975 111.387 47.4253 111.387 48.1342C111.387 48.8169 111.249 49.4385 110.972 49.999C110.695 50.5596 110.295 51.0138 109.773 51.3615C109.251 51.7098 108.636 51.9154 107.928 51.9798V53.7964L107.001 53.7958Z" fill="#263238"/>
<path d="M61.4353 33.1066H35.2346V57.7399H61.4353V33.1066Z" fill="white" stroke="#263238" stroke-miterlimit="10"/>
<path d="M61.4353 33.1066H35.2346V39.4402H61.4353V33.1066Z" fill="#865DFF" stroke="#263238" stroke-miterlimit="10" stroke-linecap="round" stroke-linejoin="round"/>
<path d="M40.4969 42.9604H37.3621V46.0953H40.4969V42.9604Z" fill="#865DFF" stroke="#263238" stroke-miterlimit="10" stroke-linecap="round" stroke-linejoin="round"/>
<path d="M45.1998 42.9604H42.0649V46.0953H45.1998V42.9604Z" fill="#865DFF" stroke="#263238" stroke-miterlimit="10" stroke-linecap="round" stroke-linejoin="round"/>
<path d="M49.9027 42.9604H46.7678V46.0953H49.9027V42.9604Z" fill="#865DFF" stroke="#263238" stroke-miterlimit="10" stroke-linecap="round" stroke-linejoin="round"/>
<path d="M54.6056 42.9604H51.4707V46.0953H54.6056V42.9604Z" fill="#865DFF" stroke="#263238" stroke-miterlimit="10" stroke-linecap="round" stroke-linejoin="round"/>
<path d="M59.3085 42.9604H56.1731V46.0953H59.3085V42.9604Z" fill="#865DFF" stroke="#263238" stroke-miterlimit="10" stroke-linecap="round" stroke-linejoin="round"/>
<path d="M40.4969 47.8867H37.3621V51.0216H40.4969V47.8867Z" fill="#865DFF" stroke="#263238" stroke-miterlimit="10" stroke-linecap="round" stroke-linejoin="round"/>
<path d="M45.1998 47.8867H42.0649V51.0216H45.1998V47.8867Z" fill="#865DFF" stroke="#263238" stroke-miterlimit="10" stroke-linecap="round" stroke-linejoin="round"/>
<path d="M49.9027 47.8867H46.7678V51.0216H49.9027V47.8867Z" fill="#865DFF" stroke="#263238" stroke-miterlimit="10" stroke-linecap="round" stroke-linejoin="round"/>
<path d="M54.6056 47.8867H51.4707V51.0216H54.6056V47.8867Z" fill="#865DFF" stroke="#263238" stroke-miterlimit="10" stroke-linecap="round" stroke-linejoin="round"/>
<path d="M59.3085 47.8867H56.1731V51.0216H59.3085V47.8867Z" fill="#865DFF" stroke="#263238" stroke-miterlimit="10" stroke-linecap="round" stroke-linejoin="round"/>
<path d="M40.4969 52.8136H37.3621V55.9485H40.4969V52.8136Z" fill="#865DFF" stroke="#263238" stroke-miterlimit="10" stroke-linecap="round" stroke-linejoin="round"/>
<path d="M45.1998 52.8136H42.0649V55.9485H45.1998V52.8136Z" fill="#865DFF" stroke="#263238" stroke-miterlimit="10" stroke-linecap="round" stroke-linejoin="round"/>
<path d="M49.9027 52.8136H46.7678V55.9485H49.9027V52.8136Z" fill="#865DFF" stroke="#263238" stroke-miterlimit="10" stroke-linecap="round" stroke-linejoin="round"/>
<path d="M54.6056 52.8136H51.4707V55.9485H54.6056V52.8136Z" fill="#865DFF" stroke="#263238" stroke-miterlimit="10" stroke-linecap="round" stroke-linejoin="round"/>
<path d="M59.3085 52.8136H56.1731V55.9485H59.3085V52.8136Z" fill="#865DFF" stroke="#263238" stroke-miterlimit="10" stroke-linecap="round" stroke-linejoin="round"/>
<path d="M41.0576 29.0758H38.8181V35.1221H41.0576V29.0758Z" fill="#263238"/>
<path d="M46.6559 29.0758H44.4165V35.1221H46.6559V29.0758Z" fill="#263238"/>
<path d="M52.2541 29.0758H50.0146V35.1221H52.2541V29.0758Z" fill="#263238"/>
<path d="M57.853 29.0758H55.6135V35.1221H57.853V29.0758Z" fill="#263238"/>
<path d="M12.4465 217.126C13.6623 217.657 16.6359 217.59 16.6381 217.59C16.6689 217.59 15.9986 215.644 15.9426 215.526C15.2902 214.16 13.2266 211.907 11.5483 212.134C10.3387 212.297 9.66614 213.507 9.93942 214.646C10.2183 215.809 11.4111 216.674 12.4465 217.126Z" fill="#865DFF"/>
<path d="M13.4729 225.739C14.734 225.923 17.3879 225.154 17.599 225.091C18.0179 226.577 18.5683 228.067 19.2084 229.545C19.5735 230.39 19.9672 231.23 20.3732 232.067C20.1313 231.713 19.9123 231.398 19.8771 231.357C18.887 230.213 16.302 228.584 14.743 229.246C13.6191 229.723 13.2903 231.068 13.8543 232.094C14.4299 233.142 15.8092 233.661 16.9275 233.824C18.0621 233.989 20.3379 233.378 20.9383 233.209C21.0973 233.528 21.2524 233.849 21.4126 234.168C22.1809 235.698 22.9543 237.222 23.6671 238.739C23.9186 239.274 24.1465 239.81 24.3767 240.345C24.1611 240.031 23.9774 239.767 23.9449 239.73C22.9548 238.586 20.3704 236.957 18.8108 237.619C17.6875 238.096 17.3582 239.441 17.9227 240.467C18.4989 241.516 19.8776 242.034 20.9959 242.197C22.0784 242.355 24.184 241.81 24.898 241.611C25.117 242.167 25.3376 242.722 25.5247 243.271C25.6439 243.648 25.7856 244.003 25.8842 244.388C25.99 244.768 26.0947 245.143 26.1989 245.515C26.3725 246.239 26.5562 246.985 26.7079 247.695C26.8171 248.189 26.9123 248.661 27.0092 249.136C26.7651 248.601 26.265 247.563 26.2135 247.481C25.4087 246.201 23.1004 244.199 21.4585 244.618C20.2758 244.919 19.7471 246.198 20.1492 247.298C20.5597 248.421 21.8443 249.142 22.9246 249.473C24.1146 249.837 26.7483 249.505 27.077 249.461C27.2349 250.248 27.3811 251.015 27.5071 251.741C27.7893 253.343 28.0027 254.779 28.1645 255.994H29.275C29.0812 254.737 28.8281 253.239 28.4938 251.556C28.337 250.757 28.1533 249.905 27.9562 249.033C28.1544 248.954 29.2778 248.499 30.2729 247.943C31.1398 248.882 33.3619 249.981 33.6491 250.121C33.3467 250.865 33.0455 251.585 32.7503 252.26C32.136 253.674 31.5525 254.928 31.0373 255.995H32.2379C32.6809 255.012 33.1675 253.892 33.6749 252.651C33.9851 251.898 34.3015 251.086 34.6185 250.249C34.9371 250.316 37.5445 250.845 38.7597 250.571C39.8618 250.322 41.1968 249.699 41.6902 248.609C42.1735 247.543 41.7406 246.227 40.5836 245.838C38.9781 245.298 36.5264 247.122 35.6287 248.34C35.5755 248.412 35.0878 249.255 34.7887 249.792C34.9164 249.45 35.0441 249.118 35.1712 248.764C35.4277 248.066 35.6629 247.361 35.9183 246.604C36.0291 246.234 36.1406 245.86 36.2537 245.483C36.3735 245.111 36.4531 244.703 36.5555 244.31C36.7739 243.392 36.9509 242.453 37.1077 241.502C37.7198 241.725 39.9055 242.486 41.0378 242.406C42.1651 242.326 43.5785 241.912 44.2315 240.91C44.8704 239.929 44.6425 238.563 43.5578 238.003C42.0519 237.227 39.3527 238.658 38.2803 239.725C38.2131 239.791 37.5299 240.644 37.1637 241.119C37.2533 240.547 37.3463 239.976 37.4179 239.394C37.6263 237.715 37.7853 236.008 37.9511 234.306C38.0015 233.785 38.058 233.266 38.1129 232.747C38.3302 232.828 40.9084 233.788 42.1768 233.699C43.3035 233.62 44.7175 233.206 45.3699 232.203C46.0089 231.222 45.781 229.856 44.6963 229.297C43.1904 228.52 40.4918 229.952 39.4194 231.019C39.3387 231.099 38.3571 232.327 38.123 232.651C38.2439 231.507 38.375 230.368 38.5497 229.25C38.7888 227.707 39.1086 226.207 39.5263 224.776C39.6271 224.814 42.314 225.828 43.6127 225.737C44.7399 225.658 46.1539 225.244 46.8063 224.241C47.4453 223.26 47.2174 221.894 46.1327 221.335C44.6268 220.558 41.9282 221.99 40.8552 223.057C40.7712 223.141 39.7162 224.462 39.542 224.715C39.5672 224.63 39.584 224.539 39.6098 224.455C40.0746 222.933 40.7163 221.518 41.3822 220.221C41.7675 219.467 42.1779 218.768 42.5923 218.097C43.0734 218.337 45.2837 219.41 46.4619 219.458C47.5909 219.503 49.0419 219.247 49.8007 218.322C50.5438 217.417 50.4671 216.035 49.4507 215.359C48.0389 214.422 45.1991 215.548 44.0164 216.492C43.952 216.542 43.3562 217.137 42.9278 217.575C43.1193 217.275 43.3114 216.962 43.5012 216.678C44.2096 215.611 44.9247 214.677 45.5643 213.855C45.9316 213.391 46.2732 212.978 46.5969 212.596C47.1916 212.586 49.589 212.512 50.6367 212.02C51.6593 211.54 52.8291 210.645 53.0767 209.474C53.3186 208.328 52.6135 207.137 51.4006 207.006C49.7161 206.825 47.7147 209.133 47.0992 210.515C47.046 210.635 46.4289 212.598 46.4603 212.598C46.4603 212.598 46.4894 212.597 46.4961 212.597C46.1769 212.959 45.8398 213.351 45.4791 213.787C44.82 214.596 44.0831 215.517 43.3489 216.573C42.6119 217.626 41.8408 218.791 41.1397 220.092C40.4352 221.394 39.7604 222.801 39.2525 224.34C39.2463 224.357 39.243 224.376 39.2374 224.394C39.2463 223.898 39.2245 222.509 39.2105 222.403C39.0162 220.903 37.759 218.118 36.0924 217.81C34.8923 217.588 33.8759 218.528 33.7802 219.695C33.6827 220.888 34.5468 222.08 35.3896 222.833C36.3399 223.682 38.9781 224.504 39.1881 224.569C38.7177 226.039 38.3548 227.586 38.0737 229.171C37.9119 230.078 37.7775 230.996 37.6537 231.917C37.6475 231.488 37.6386 231.104 37.6313 231.05C37.437 229.55 36.1798 226.766 34.5132 226.458C33.3131 226.236 32.2967 227.176 32.201 228.343C32.103 229.535 32.9676 230.728 33.8099 231.481C34.665 232.245 36.8999 232.991 37.4941 233.181C37.4504 233.535 37.4028 233.888 37.3608 234.242C37.1575 235.943 36.9621 237.64 36.7196 239.299C36.6345 239.884 36.5292 240.457 36.4256 241.03C36.4195 240.649 36.4111 240.327 36.4049 240.279C36.21 238.778 34.9528 235.994 33.2874 235.686C32.0867 235.464 31.0703 236.404 30.9746 237.571C30.8771 238.763 31.7412 239.956 32.584 240.709C33.3999 241.438 35.4568 242.145 36.1613 242.374C36.0375 242.958 35.9149 243.543 35.7687 244.103C35.6601 244.484 35.5823 244.857 35.4523 245.234C35.3314 245.608 35.2115 245.979 35.0928 246.347C34.838 247.047 34.5799 247.77 34.315 248.446C34.1341 248.918 33.9527 249.364 33.7712 249.814C33.8625 249.232 34.0182 248.091 34.0204 247.995C34.0434 246.99 33.6867 245.356 32.9766 244.208C32.9811 244.059 32.9727 243.911 32.9491 243.765C32.7632 242.608 31.6768 241.75 30.4975 242.064C28.8606 242.5 27.8223 245.374 27.7445 246.884C27.74 246.973 27.7983 247.946 27.8453 248.558C27.7624 248.202 27.6868 247.855 27.5978 247.49C27.4259 246.766 27.2332 246.048 27.0294 245.276C26.9174 244.906 26.8043 244.532 26.6906 244.156C26.5853 243.779 26.4268 243.395 26.2952 243.01C25.9715 242.125 25.6003 241.244 25.2066 240.364C25.8405 240.212 28.0827 239.64 28.9832 238.949C29.8798 238.262 30.8307 237.136 30.8217 235.94C30.8133 234.769 29.8703 233.756 28.6562 233.887C26.9717 234.07 25.5101 236.753 25.2043 238.235C25.1853 238.327 25.0856 239.415 25.0425 240.013C24.8017 239.486 24.5643 238.959 24.3033 238.434C23.5507 236.918 22.742 235.407 21.9412 233.896C21.6959 233.433 21.4568 232.969 21.2155 232.506C21.4417 232.454 24.1219 231.832 25.1304 231.058C26.027 230.371 26.9779 229.245 26.9689 228.049C26.9605 226.878 26.0169 225.865 24.8039 225.997C23.1195 226.18 21.6579 228.862 21.3521 230.344C21.3291 230.456 21.188 232.021 21.1712 232.421C20.6409 231.4 20.1218 230.377 19.6508 229.348C18.9995 227.93 18.4384 226.502 17.9971 225.078C18.1024 225.054 20.9024 224.417 21.9356 223.625C22.8322 222.937 23.7831 221.812 23.7741 220.616C23.7663 219.445 22.8227 218.432 21.6091 218.564C19.9252 218.746 18.4636 221.43 18.1579 222.911C18.1338 223.027 17.9826 224.711 17.977 225.019C17.9507 224.934 17.9143 224.85 17.8896 224.764C17.4383 223.238 17.1924 221.703 17.0323 220.255C16.9376 219.414 16.8945 218.604 16.8704 217.816C17.4041 217.751 19.8401 217.427 20.8481 216.816C21.8147 216.231 22.8837 215.216 23.0063 214.027C23.1262 212.862 22.3002 211.751 21.0794 211.749C19.3854 211.746 17.6376 214.252 17.1711 215.691C17.1454 215.77 16.9757 216.593 16.8609 217.195C16.8553 216.839 16.843 216.472 16.8441 216.131C16.8463 214.85 16.9275 213.677 17.0076 212.639C17.058 212.048 17.1151 211.516 17.1745 211.019C17.6645 210.682 19.6239 209.298 20.2265 208.31C20.8145 207.345 21.2955 205.953 20.8565 204.841C20.4264 203.752 19.181 203.147 18.0968 203.707C16.5915 204.485 16.1956 207.514 16.4448 209.007C16.4667 209.135 17.0351 211.113 17.0608 211.096C17.0608 211.096 17.0849 211.08 17.0905 211.076C17.0244 211.554 16.9589 212.067 16.899 212.629C16.7959 213.668 16.689 214.842 16.6587 216.128C16.6251 217.413 16.6251 218.81 16.7579 220.282C16.8889 221.757 17.1017 223.303 17.5273 224.866C17.5323 224.884 17.5396 224.902 17.5447 224.92C17.2781 224.501 16.4935 223.355 16.423 223.274C15.4335 222.13 12.8485 220.501 11.2889 221.163C10.1655 221.64 9.83626 222.985 10.4007 224.012C10.9764 225.058 12.3551 225.576 13.4729 225.739Z" fill="#865DFF"/>
<path d="M42.524 217.78C42.5504 217.796 43.065 215.804 43.0829 215.674C43.2912 214.176 42.8136 211.159 41.2881 210.422C40.1894 209.891 38.9608 210.529 38.5604 211.63C38.1516 212.754 38.6696 214.133 39.2839 215.081C40.0046 216.194 42.5218 217.778 42.524 217.78Z" fill="#865DFF"/>
<path d="M219.149 217.126C220.364 217.657 223.338 217.59 223.34 217.59C223.371 217.59 222.701 215.644 222.645 215.526C221.992 214.16 219.929 211.907 218.25 212.134C217.041 212.297 216.368 213.507 216.642 214.646C216.92 215.809 218.113 216.674 219.149 217.126Z" fill="#865DFF"/>
<path d="M220.174 225.739C221.436 225.923 224.089 225.154 224.301 225.091C224.719 226.577 225.27 228.067 225.91 229.545C226.275 230.39 226.669 231.23 227.074 232.067C226.832 231.713 226.613 231.398 226.578 231.357C225.588 230.213 223.003 228.584 221.444 229.246C220.32 229.723 219.991 231.068 220.555 232.094C221.131 233.142 222.51 233.661 223.629 233.824C224.763 233.989 227.039 233.378 227.639 233.209C227.798 233.528 227.953 233.849 228.113 234.168C228.881 235.698 229.655 237.222 230.368 238.739C230.619 239.274 230.847 239.81 231.077 240.345C230.862 240.031 230.678 239.767 230.645 239.73C229.656 238.586 227.071 236.957 225.511 237.619C224.388 238.096 224.059 239.441 224.623 240.467C225.199 241.516 226.578 242.034 227.696 242.197C228.778 242.355 230.884 241.81 231.598 241.611C231.817 242.167 232.038 242.722 232.225 243.271C232.344 243.648 232.486 244.003 232.584 244.388C232.69 244.768 232.795 245.143 232.899 245.515C233.072 246.239 233.256 246.985 233.408 247.695C233.517 248.189 233.612 248.661 233.709 249.136C233.465 248.601 232.965 247.563 232.913 247.481C232.109 246.201 229.8 244.199 228.158 244.618C226.976 244.919 226.446 246.198 226.849 247.298C227.26 248.421 228.544 249.142 229.624 249.473C230.814 249.837 233.448 249.505 233.777 249.461C233.935 250.248 234.081 251.015 234.207 251.741C234.489 253.343 234.703 254.779 234.864 255.994H235.975C235.781 254.737 235.528 253.239 235.194 251.556C235.037 250.757 234.853 249.905 234.656 249.033C234.854 248.954 235.978 248.499 236.973 247.943C237.84 248.882 240.062 249.981 240.349 250.121C240.047 250.865 239.745 251.585 239.45 252.26C238.836 253.674 238.252 254.928 237.737 255.995H238.938C239.381 255.012 239.867 253.892 240.375 252.651C240.685 251.898 241.001 251.086 241.318 250.249C241.637 250.316 244.244 250.845 245.46 250.571C246.562 250.322 247.897 249.699 248.39 248.609C248.873 247.543 248.44 246.227 247.284 245.838C245.678 245.298 243.226 247.122 242.329 248.34C242.275 248.412 241.788 249.255 241.489 249.792C241.616 249.45 241.744 249.118 241.871 248.764C242.128 248.066 242.363 247.361 242.619 246.604C242.73 246.234 242.841 245.86 242.954 245.483C243.074 245.111 243.154 244.703 243.256 244.31C243.474 243.392 243.651 242.453 243.808 241.502C244.42 241.725 246.606 242.486 247.738 242.406C248.866 242.326 250.279 241.912 250.932 240.91C251.571 239.929 251.343 238.563 250.258 238.003C248.752 237.227 246.053 238.658 244.981 239.725C244.914 239.791 244.23 240.644 243.864 241.119C243.954 240.547 244.047 239.976 244.118 239.394C244.327 237.715 244.486 236.008 244.652 234.306C244.702 233.785 244.758 233.266 244.813 232.747C245.031 232.828 247.608 233.788 248.877 233.699C250.004 233.62 251.417 233.206 252.07 232.203C252.709 231.222 252.481 229.856 251.397 229.297C249.891 228.52 247.192 229.952 246.12 231.019C246.039 231.099 245.058 232.327 244.823 232.651C244.944 231.507 245.075 230.368 245.25 229.25C245.489 227.707 245.809 226.207 246.227 224.776C246.328 224.814 249.014 225.828 250.313 225.737C251.44 225.658 252.854 225.244 253.507 224.241C254.146 223.26 253.918 221.894 252.833 221.335C251.327 220.558 248.629 221.99 247.556 223.057C247.472 223.141 246.417 224.462 246.242 224.715C246.267 224.63 246.283 224.539 246.31 224.455C246.774 222.933 247.416 221.518 248.082 220.221C248.467 219.467 248.878 218.768 249.292 218.097C249.773 218.337 251.984 219.41 253.162 219.458C254.291 219.503 255.742 219.247 256.501 218.322C257.244 217.417 257.167 216.035 256.151 215.359C254.739 214.422 251.899 215.548 250.716 216.492C250.652 216.542 250.056 217.137 249.628 217.575C249.819 217.275 250.011 216.962 250.201 216.678C250.91 215.611 251.625 214.677 252.264 213.855C252.632 213.391 252.973 212.978 253.297 212.596C253.892 212.586 256.289 212.512 257.337 212.02C258.359 211.54 259.529 210.645 259.777 209.474C260.018 208.328 259.313 207.137 258.101 207.006C256.416 206.825 254.415 209.133 253.799 210.515C253.746 210.635 253.129 212.598 253.16 212.598C253.16 212.598 253.189 212.597 253.196 212.597C252.877 212.959 252.54 213.351 252.179 213.787C251.52 214.596 250.783 215.517 250.049 216.573C249.312 217.626 248.541 218.791 247.84 220.092C247.135 221.394 246.46 222.801 245.952 224.34C245.947 224.357 245.943 224.376 245.937 224.394C245.946 223.898 245.924 222.509 245.91 222.403C245.716 220.903 244.459 218.118 242.792 217.81C241.592 217.588 240.576 218.528 240.48 219.695C240.383 220.888 241.247 222.08 242.09 222.833C243.04 223.682 245.678 224.504 245.888 224.569C245.418 226.039 245.055 227.586 244.774 229.171C244.612 230.078 244.477 230.996 244.354 231.917C244.347 231.488 244.338 231.104 244.332 231.05C244.137 229.55 242.88 226.766 241.214 226.458C240.014 226.236 238.997 227.176 238.901 228.343C238.803 229.535 239.668 230.728 240.51 231.481C241.365 232.245 243.6 232.991 244.195 233.181C244.151 233.535 244.103 233.888 244.061 234.242C243.858 235.943 243.663 237.64 243.42 239.299C243.335 239.884 243.23 240.457 243.126 241.03C243.12 240.649 243.112 240.327 243.105 240.279C242.91 238.778 241.653 235.994 239.988 235.686C238.787 235.464 237.771 236.404 237.675 237.571C237.578 238.763 238.442 239.956 239.284 240.709C240.1 241.438 242.157 242.145 242.862 242.374C242.738 242.958 242.615 243.543 242.469 244.103C242.361 244.484 242.283 244.857 242.153 245.234C242.032 245.608 241.912 245.979 241.793 246.347C241.538 247.047 241.28 247.77 241.015 248.446C240.835 248.918 240.653 249.364 240.472 249.814C240.563 249.232 240.719 248.091 240.721 247.995C240.744 246.99 240.387 245.356 239.677 244.208C239.682 244.059 239.673 243.911 239.65 243.765C239.464 242.608 238.378 241.75 237.198 242.064C235.561 242.5 234.522 245.374 234.445 246.884C234.44 246.973 234.499 247.946 234.546 248.558C234.463 248.202 234.387 247.855 234.298 247.49C234.126 246.766 233.934 246.048 233.73 245.276C233.618 244.906 233.505 244.532 233.391 244.156C233.286 243.779 233.127 243.395 232.996 243.01C232.672 242.125 232.301 241.244 231.907 240.364C232.541 240.212 234.783 239.64 235.684 238.949C236.58 238.262 237.531 237.136 237.522 235.94C237.514 234.769 236.571 233.756 235.357 233.887C233.673 234.07 232.211 236.753 231.905 238.235C231.886 238.327 231.787 239.415 231.744 240.013C231.503 239.486 231.265 238.959 231.004 238.434C230.252 236.918 229.443 235.407 228.642 233.896C228.397 233.433 228.158 232.969 227.916 232.506C228.143 232.454 230.823 231.832 231.831 231.058C232.728 230.371 233.678 229.245 233.67 228.049C233.662 226.878 232.718 225.865 231.505 225.997C229.82 226.18 228.359 228.862 228.053 230.344C228.03 230.456 227.889 232.021 227.872 232.421C227.342 231.4 226.823 230.377 226.352 229.348C225.7 227.93 225.139 226.502 224.698 225.078C224.804 225.054 227.603 224.417 228.637 223.625C229.533 222.937 230.484 221.812 230.475 220.616C230.467 219.445 229.524 218.432 228.31 218.564C226.626 218.746 225.164 221.43 224.859 222.911C224.835 223.027 224.684 224.711 224.678 225.019C224.652 224.934 224.615 224.85 224.591 224.764C224.139 223.238 223.893 221.703 223.734 220.255C223.639 219.414 223.596 218.604 223.572 217.816C224.106 217.751 226.542 217.427 227.55 216.816C228.516 216.231 229.585 215.216 229.708 214.027C229.828 212.862 229.002 211.751 227.781 211.749C226.087 211.746 224.339 214.252 223.873 215.691C223.847 215.77 223.677 216.593 223.562 217.195C223.557 216.839 223.545 216.472 223.546 216.131C223.548 214.85 223.629 213.677 223.709 212.639C223.76 212.048 223.817 211.516 223.876 211.019C224.366 210.682 226.326 209.298 226.928 208.31C227.516 207.345 227.997 205.953 227.558 204.841C227.128 203.752 225.883 203.147 224.798 203.707C223.293 204.485 222.897 207.514 223.146 209.007C223.168 209.135 223.737 211.113 223.762 211.096C223.762 211.096 223.786 211.08 223.792 211.076C223.726 211.554 223.66 212.067 223.601 212.629C223.498 213.668 223.391 214.842 223.36 216.128C223.327 217.413 223.327 218.81 223.459 220.282C223.59 221.757 223.803 223.303 224.229 224.866C224.234 224.884 224.241 224.902 224.246 224.92C223.98 224.501 223.195 223.355 223.125 223.274C222.136 222.13 219.551 220.501 217.991 221.163C216.868 221.64 216.538 222.985 217.103 224.012C217.678 225.058 219.057 225.576 220.174 225.739Z" fill="#865DFF"/>
<path d="M249.226 217.78C249.252 217.796 249.767 215.804 249.785 215.674C249.993 214.176 249.515 211.159 247.99 210.422C246.891 209.891 245.662 210.529 245.262 211.63C244.853 212.754 245.371 214.133 245.986 215.081C246.706 216.194 249.224 217.778 249.226 217.78Z" fill="#865DFF"/>
<path d="M195.627 100.559C195.627 100.559 195.798 94.239 199.443 92.4437C203.088 90.6483 203.295 96.5731 203.295 96.5731C203.295 96.5731 211.637 91.2772 213.446 95.2924C215.254 99.3076 212.727 101.25 212.727 101.25C212.727 101.25 220.133 100.992 220.645 105.052C221.157 109.113 217.334 111.1 217.334 111.1C217.334 111.1 221.913 114.833 220.305 116.557C218.696 118.282 215.178 118.404 215.178 118.404C215.178 118.404 217.172 122.413 213.699 123.832C210.227 125.25 206.242 122.609 206.242 122.609C206.242 122.609 206.862 124.441 204.251 123.976C201.639 123.51 199.002 122.305 197.385 118.468C195.767 114.631 193.678 103.79 195.627 100.559Z" fill="#263238" stroke="#263238" stroke-miterlimit="10" stroke-linecap="round" stroke-linejoin="round"/>
<path d="M157.133 222.668C157.133 222.668 155.053 230.595 155.084 231.478C155.114 232.36 154.398 234.349 155.007 234.917C155.616 235.484 158.332 237.354 158.629 237.441C158.927 237.529 159.799 237.204 160.087 236.998C160.374 236.792 160.553 236.294 160.543 236C160.533 235.706 159.704 234.458 159.595 234.167C159.487 233.877 161.123 230.088 161.744 228.201C162.366 226.314 162.743 223.061 162.743 223.061L157.133 222.668Z" fill="white" stroke="#263238" stroke-miterlimit="10"/>
<path d="M159.387 228.186C159.387 228.186 158.208 230.976 158.127 231.47C158.046 231.964 156.423 233.297 156.657 234.368C156.891 235.44 159.237 235.162 160.403 231.979" fill="white"/>
<path d="M159.387 228.186C159.387 228.186 158.208 230.976 158.127 231.47C158.046 231.964 156.423 233.297 156.657 234.368C156.891 235.44 159.237 235.162 160.403 231.979" stroke="#263238" stroke-miterlimit="10"/>
<path d="M164.681 179.592C164.681 179.592 163.687 195.766 163.312 197.195C162.937 198.624 158.437 211.664 157.443 215.663C156.45 219.662 156.149 223.212 156.149 223.212L162.195 224.482L165.584 209.574C165.584 209.574 170.02 196.01 169.136 189.63C168.252 183.25 164.681 179.592 164.681 179.592Z" fill="#865DFF" stroke="#263238" stroke-miterlimit="10"/>
<path d="M196.158 255.993C196.228 252.474 196.377 247.732 196.692 245.016C197.236 240.325 199.259 237.423 201.319 231.547C203.38 225.67 203.538 218.02 203.538 218.02L166.631 219.307C166.631 219.307 162.371 235.17 159.805 246.869C158.945 250.792 158.628 253.765 158.583 255.993" fill="#865DFF"/>
<path d="M196.158 255.993C196.228 252.474 196.377 247.732 196.692 245.016C197.236 240.325 199.259 237.423 201.319 231.547C203.38 225.67 203.538 218.02 203.538 218.02L166.631 219.307C166.631 219.307 162.371 235.17 159.805 246.869C158.945 250.792 158.628 253.765 158.583 255.993" stroke="#263238" stroke-miterlimit="10"/>
<path d="M171.511 225.283L202.218 226.148L202.867 223.769L171.511 225.283Z" fill="#263238" stroke="#263238" stroke-miterlimit="10" stroke-linecap="round" stroke-linejoin="round"/>
<path d="M169.962 255.43C169.962 255.43 169.356 236.23 169.341 225.81Z" fill="white"/>
<path d="M169.962 255.43C169.962 255.43 169.356 236.23 169.341 225.81" stroke="#263238" stroke-miterlimit="10"/>
<path d="M193.494 138.968L197.972 141.984C197.972 141.984 203.265 146.73 204.584 150.628C205.903 154.526 204.941 177.83 203.626 185.37C202.311 192.91 205.595 202.261 206.765 207.546C207.936 212.83 208.476 222.671 208.476 222.671C208.476 222.671 209.305 223.825 194.926 224.326C180.547 224.828 170.515 225.572 169.34 225.81C168.165 226.048 167.18 226.083 167.18 226.083L166.608 220.975L165.176 225.166L162.194 224.481C162.194 224.481 164.045 215.345 164.512 211.779C164.98 208.212 167.909 196.081 167.948 191.544C167.988 187.006 164.181 179.645 163.432 175.136C162.683 170.626 164.188 162.882 167.928 157.032C171.668 151.183 174.154 148.927 181.439 142.954C188.727 136.981 193.494 138.968 193.494 138.968Z" fill="#865DFF" stroke="#263238" stroke-miterlimit="10"/>
<path d="M181.826 207.208L196.849 208.909L196.004 204.975L186.632 204.169" stroke="#263238" stroke-miterlimit="10"/>
<path d="M176.573 203.953L175.813 206.528L179.582 206.955" stroke="#263238" stroke-miterlimit="10"/>
<path d="M182.211 178.21C181.429 177.458 180.732 176.715 180.273 176.076" stroke="#263238" stroke-miterlimit="10"/>
<path d="M187.438 182.621C187.438 182.621 185.851 181.424 184.115 179.931" stroke="#263238" stroke-miterlimit="10"/>
<path d="M193.494 138.968C193.494 138.968 188.727 136.982 181.44 142.955C174.155 148.928 171.669 151.184 167.929 157.033C165.614 160.654 164.157 165.001 163.56 168.857C163.649 169.294 163.745 169.737 163.852 170.191C165.934 178.993 168.252 183.25 168.252 183.25C168.252 183.25 172.285 163.192 179.299 155.059C186.312 146.926 197.973 141.984 197.973 141.984L193.494 138.968Z" fill="#865DFF" stroke="#263238" stroke-miterlimit="10"/>
<path d="M175.985 99.8424C175.985 99.8424 170.727 104.755 170.336 108.622C169.945 112.488 169.536 115.83 168.879 117.079C168.222 118.328 164.923 119.144 166.039 121.032C167.156 122.919 168.205 122.883 168.205 122.883C168.205 122.883 169.898 131.231 171.165 132.413C172.432 133.595 176.962 132.912 176.962 132.912L178.357 143.036C178.357 143.036 168.959 151.376 167.128 162.992C165.297 174.608 167.392 181.243 167.392 181.243C167.392 181.243 168.617 162.94 172.85 156.085C177.083 149.229 186.918 142.738 188.368 141.57C189.818 140.401 193.495 138.968 193.495 138.968C193.495 138.968 191.749 135.023 191.513 133.28C191.277 131.537 191.361 128.906 191.686 128.195C192.012 127.483 197.892 125.351 200.11 118.618C202.327 111.885 199.073 103.942 195.627 100.559C192.181 97.1762 180.387 95.4856 175.985 99.8424Z" fill="white" stroke="#263238" stroke-miterlimit="10"/>
<path d="M200.109 118.618C202.326 111.885 199.072 103.942 195.626 100.559C192.18 97.1762 180.387 95.4856 175.984 99.843C175.984 99.843 175.702 100.107 175.267 100.557C176.174 100.314 177.98 99.9964 180.382 100.39C183.905 100.968 183.828 103.773 182.87 106.434C181.912 109.094 182.629 109.595 184.428 110.933C186.226 112.272 184.387 114.788 185.648 115.795C186.909 116.801 187.944 111.336 190.709 115.268C193.473 119.199 191.61 121.016 189.897 122.126C188.184 123.237 186.796 123.636 186.796 123.636C186.796 123.636 189.393 126.676 191.947 127.93C193.168 127.002 198.116 124.668 200.109 118.618Z" fill="#263238" stroke="#263238" stroke-miterlimit="10" stroke-linecap="round" stroke-linejoin="round"/>
<path d="M171.06 124.36C171.06 124.36 174.727 124.057 176.422 122.422" stroke="#263238" stroke-miterlimit="10"/>
<path d="M173.385 115.697C173.415 116.566 173.088 117.283 172.653 117.298C172.218 117.313 171.841 116.621 171.81 115.751C171.78 114.882 172.108 114.165 172.543 114.149C172.977 114.134 173.355 114.827 173.385 115.697Z" fill="#263238"/>
<path d="M171.808 112.149C171.808 112.149 172.99 110.56 174.681 112.435" stroke="#263238" stroke-miterlimit="10"/>
<path d="M176.962 132.912L181.331 131.263L178.288 136.735L176.962 132.912Z" fill="#263238" stroke="#263238" stroke-miterlimit="10"/>
<path d="M164.366 213.285L158.63 237.442L163.777 238.637L166.609 220.975L164.366 213.285Z" fill="white" stroke="#263238" stroke-miterlimit="10"/>
<path d="M169.433 155.461C168.397 157.751 167.555 160.28 167.127 162.992C165.296 174.608 167.391 181.243 167.391 181.243C167.391 181.243 168.602 163.186 172.767 156.227C171.456 156.074 170.347 155.791 169.433 155.461Z" fill="white" stroke="#263238" stroke-miterlimit="10"/>
<path d="M187.154 162.999L186.76 183.496L150.89 189.409L151.678 199.066C151.678 199.066 171.585 199.46 180.848 198.672C190.111 197.883 198.191 197.292 199.374 196.307C200.557 195.321 203.913 176.27 205.293 162.868C206.673 149.466 203.913 144.932 198.395 145.721" fill="#865DFF"/>
<path d="M187.154 162.999L186.76 183.496L150.89 189.409L151.678 199.066C151.678 199.066 171.585 199.46 180.848 198.672C190.111 197.883 198.191 197.292 199.374 196.307C200.557 195.321 203.913 176.27 205.293 162.868C206.673 149.466 203.913 144.932 198.395 145.721" stroke="#263238" stroke-miterlimit="10"/>
<path d="M129.435 188.538L126.567 197.254L129.389 198.779C129.389 198.779 132.945 201.531 134.894 203.022C136.843 204.513 138.335 204.513 139.367 204.054C140.399 203.596 145.101 196.944 145.675 195.682C146.248 194.421 143.496 190.636 140.743 189.031C137.991 187.425 135.697 187.425 134.092 187.884C132.485 188.342 129.435 188.538 129.435 188.538Z" fill="white" stroke="#263238" stroke-miterlimit="10"/>
<path d="M150.89 189.409L146.357 189.015C146.357 189.015 143.203 188.227 142.021 188.227C140.838 188.227 139.261 189.409 138.473 190.001C137.685 190.592 129.013 200.052 129.013 200.052C129.013 200.052 129.801 201.629 130.984 201.235C132.166 200.841 134.334 199.855 134.334 199.855C134.334 199.855 131.969 202.22 133.151 203.403C134.334 204.585 136.305 204.585 136.305 204.585L137.685 203.797C137.685 203.797 138.67 204.585 139.655 204.782C140.641 204.98 142.217 204.585 143.597 203.797C144.977 203.008 148.471 198.897 148.471 198.897L151.499 197.726L150.89 189.409Z" fill="white" stroke="#263238" stroke-miterlimit="10"/>
<path d="M130.995 188.915C130.995 188.915 136.729 185.59 139.252 186.507C141.775 187.424 145.101 193.044 144.183 193.847C143.266 194.65 141.775 194.305 140.972 193.503C140.169 192.7 138.793 191.897 138.793 191.897C138.793 191.897 136.499 193.274 133.862 193.274" fill="white"/>
<path d="M130.995 188.915C130.995 188.915 136.729 185.59 139.252 186.507C141.775 187.424 145.101 193.044 144.183 193.847C143.266 194.65 141.775 194.305 140.972 193.503C140.169 192.7 138.793 191.897 138.793 191.897C138.793 191.897 136.499 193.274 133.862 193.274" stroke="#263238" stroke-miterlimit="10"/>
<path d="M148.096 201.934L146.276 200.962C145.661 200.633 145.429 199.869 145.758 199.254C146.086 198.64 146.85 198.407 147.465 198.736L149.286 199.709C149.9 200.037 150.132 200.801 149.804 201.416C149.475 202.031 148.711 202.263 148.096 201.934Z" fill="white" stroke="#263238" stroke-miterlimit="10"/>
<path d="M146.491 203.884L144.67 202.912C144.056 202.583 143.823 201.819 144.152 201.204C144.48 200.59 145.245 200.357 145.859 200.686L147.68 201.659C148.294 201.987 148.527 202.751 148.198 203.366C147.869 203.981 147.105 204.212 146.491 203.884Z" fill="white" stroke="#263238" stroke-miterlimit="10"/>
<path d="M144.656 205.605L142.835 204.632C142.221 204.304 141.988 203.539 142.317 202.924C142.645 202.31 143.41 202.078 144.024 202.406L145.845 203.379C146.459 203.707 146.692 204.472 146.363 205.087C146.035 205.701 145.27 205.933 144.656 205.605Z" fill="white" stroke="#263238" stroke-miterlimit="10"/>
<path d="M140.79 205.69L140.312 205.434C139.697 205.106 139.465 204.342 139.794 203.727C140.122 203.113 140.886 202.88 141.501 203.209L141.979 203.465C142.594 203.793 142.826 204.557 142.497 205.172C142.169 205.787 141.405 206.018 140.79 205.69Z" fill="white" stroke="#263238" stroke-miterlimit="10"/>
<path d="M129.434 188.538L105.364 178.364L106.254 194.305L126.13 198.86L129.434 188.538Z" fill="#263238" stroke="#263238" stroke-miterlimit="10" stroke-linecap="round" stroke-linejoin="round"/>
<path d="M126.13 198.86L129.434 188.538L126.069 187.053L126.003 187.391L122.918 198.082L126.13 198.86Z" fill="white" stroke="#263238" stroke-miterlimit="10"/>
<path d="M91.8645 124.766L98.0379 127.63C98.0379 127.63 100.625 134.959 99.7622 135.174C98.8998 135.39 92.4335 130.217 92.4335 130.217L91.8645 124.766Z" fill="white" stroke="#263238" stroke-miterlimit="10" stroke-linecap="round" stroke-linejoin="round"/>
<path d="M95.4172 123.299L95.8507 120.831C95.8507 120.831 101.562 121.223 103.845 121.209C106.128 121.195 108.124 120.897 108.109 118.472C108.094 116.046 106.758 107.777 106.758 107.777C106.758 107.777 109.324 107.19 110.315 106.042C111.307 104.894 109.871 103.476 108.577 101.771C107.282 100.067 106.128 98.2186 105.973 96.2216C105.818 94.2246 102.352 87.6816 102.352 87.6816C102.352 87.6816 102.917 86.6792 101.049 84.5501C99.1799 82.421 89.6162 82.0525 83.4987 85.0871C77.3813 88.1218 75.9813 92.5547 76.0116 97.4066C76.0418 102.258 78.7953 109.092 78.7953 109.092C78.7953 109.092 76.986 116.524 76.846 116.953C76.706 117.382 75.0864 120.544 75.0864 120.544C75.0864 120.544 82.7371 125.884 85.536 128.278C88.3343 130.672 94.6372 134.774 94.6764 132.559C94.7156 130.344 94.9681 125.332 94.9681 125.332L95.4172 123.299Z" fill="white" stroke="#263238" stroke-miterlimit="10" stroke-linecap="round" stroke-linejoin="round"/>
<path d="M103.856 100.14C103.893 100.966 103.7 101.647 103.425 101.659C103.149 101.671 102.895 101.011 102.858 100.185C102.821 99.358 103.014 98.6776 103.29 98.6653C103.566 98.653 103.819 99.3132 103.856 100.14Z" fill="#263238"/>
<path d="M99.844 97.4014C99.844 97.4014 101.115 95.2526 104.405 96.5166" stroke="#263238" stroke-width="2" stroke-miterlimit="10" stroke-linecap="round" stroke-linejoin="round"/>
<path d="M108.109 118.471C108.094 116.045 106.758 107.776 106.758 107.776C106.758 107.776 105.183 106.929 102.191 107.662C99.1983 108.394 98.3723 113.251 97.805 113.826C97.2377 114.4 93.5059 110.998 92.065 108.723C90.6235 106.449 89.5999 102.459 89.4431 100.177C89.2863 97.8947 94.702 96.7198 95.5448 94.5739C96.3876 92.428 92.378 90.1695 93.7959 88.7337C95.2139 87.2978 98.0715 87.8511 99.5007 88.1272C100.929 88.4038 102.352 87.6814 102.352 87.6814C102.352 87.6814 102.917 86.679 101.048 84.5499C99.1798 82.4208 89.6161 82.0518 83.4987 85.087C77.3812 88.1216 75.9812 92.5546 76.0115 97.4064C76.0355 101.338 77.8488 106.57 78.5354 108.414C79.0853 108.611 79.9813 108.894 80.3632 108.796C80.9333 108.65 81.3505 106.935 81.6255 105.221C81.9004 103.506 86.0265 101.483 86.0265 101.483C86.0265 101.483 86.7719 106.616 86.778 107.615C86.7842 108.614 86.2443 113.612 88.971 116.021C91.6976 118.43 95.8511 120.83 95.8511 120.83C95.8511 120.83 101.562 121.223 103.845 121.209C106.128 121.195 108.124 120.897 108.109 118.471Z" fill="#263238" stroke="#263238" stroke-miterlimit="10" stroke-linecap="round" stroke-linejoin="round"/>
<path d="M86.9047 105.045C86.9047 105.045 85.7203 98.2027 83.7244 98.5006C81.7286 98.7986 80.6024 101.374 81.6222 104.65C82.6414 107.926 84.6378 107.628 85.7774 107.336" fill="white"/>
<path d="M86.9047 105.045C86.9047 105.045 85.7203 98.2027 83.7244 98.5006C81.7286 98.7986 80.6024 101.374 81.6222 104.65C82.6414 107.926 84.6378 107.628 85.7774 107.336" stroke="#263238" stroke-miterlimit="10" stroke-linecap="round" stroke-linejoin="round"/>
<path d="M100.923 110.238C100.923 110.238 102.073 111.658 105.07 111.639" stroke="white" stroke-miterlimit="10" stroke-linecap="round" stroke-linejoin="round"/>
<path d="M68.8592 255.993H99.0959C99.2006 254.405 100.372 248.286 100.372 244.28C100.372 239.644 103.56 209.77 103.56 209.77L64.2319 209.255L65.5199 227.54L68.8592 255.993Z" fill="#263238" stroke="#263238" stroke-miterlimit="10" stroke-linecap="round" stroke-linejoin="round"/>
<path d="M72.8185 121.595C72.8185 121.595 65.921 130.432 63.9811 135.39C62.0413 140.348 60.5321 141.21 60.9633 147.461C61.3945 153.712 64.4123 178.715 64.4123 178.715L58.3772 211.263C58.3772 211.263 68.077 215.142 80.5784 215.142C93.0798 215.142 98.4687 214.064 99.3311 213.634C100.194 213.203 107.737 211.263 107.737 211.263C107.737 211.263 107.737 174.404 105.366 161.687C102.995 148.969 99.9774 139.27 98.8999 136.899C97.8219 134.528 94.3734 126.768 94.3734 126.768L72.8185 121.595Z" fill="#263238" stroke="#263238" stroke-miterlimit="10" stroke-linecap="round" stroke-linejoin="round"/>
<path d="M98.8999 136.899C97.8224 134.528 94.3734 126.768 94.3734 126.768L72.8184 121.594C72.8184 121.594 71.3602 123.464 69.5962 125.964C74.294 128.695 85.9264 135.433 86.6135 135.605C87.4759 135.821 91.7867 135.39 91.7867 135.39L89.8469 137.761C89.8469 137.761 95.0202 141.856 96.7444 143.58C97.6511 144.487 100.286 146.883 102.581 148.952C101.016 142.76 99.5758 138.387 98.8999 136.899Z" fill="#263238" stroke="#263238" stroke-miterlimit="10" stroke-linecap="round" stroke-linejoin="round"/>
<path d="M88.9846 131.51L96.3133 137.33L102.349 148.108L98.4688 132.373L90.4938 127.846L88.9846 131.51Z" fill="white" stroke="#263238" stroke-miterlimit="10" stroke-linecap="round" stroke-linejoin="round"/>
<path d="M74.3277 117.5L96.899 127.67V135.645L71.0942 122.457L74.3277 117.5Z" fill="white" stroke="#263238" stroke-miterlimit="10" stroke-linecap="round" stroke-linejoin="round"/>
<path d="M104.169 199.077H65.1711V230.63H104.169V199.077Z" fill="#865DFF" stroke="#263238" stroke-miterlimit="10"/>
<path d="M87.0661 214.115C87.0661 214.115 89.9658 217.897 91.1003 218.275C92.2349 218.653 92.8655 219.536 93.3695 220.292C93.8735 221.049 94.504 226.722 94.8826 227.1C95.2606 227.478 95.2606 228.361 93.874 227.731C92.4869 227.1 91.6049 224.957 91.6049 224.957L92.1089 230C92.1089 230 93.2435 230.252 92.3609 230.882C91.4783 231.513 90.7218 232.396 89.9658 232.017C89.2092 231.639 88.0747 230.63 88.0747 230.63C88.0747 230.63 86.6881 231.135 85.301 230.882C83.9139 230.63 84.1664 231.134 82.9053 230.252C81.6447 229.369 81.6447 230.378 81.0142 228.739C80.3836 227.1 78.8711 221.426 78.6191 219.787C78.3671 218.148 78.1145 215.879 78.1145 215.879L87.0661 214.115Z" fill="white" stroke="#263238" stroke-miterlimit="10" stroke-linecap="round" stroke-linejoin="round"/>
<path d="M87.5701 211.719L88.4527 215.627L77.6105 217.141L77.106 213.232L87.5701 211.719Z" fill="white" stroke="#263238" stroke-miterlimit="10" stroke-linecap="round" stroke-linejoin="round"/>
<path d="M73.6809 129.355C73.6809 129.355 66.1366 131.726 65.921 135.174C65.7054 138.624 63.2078 180.458 64.2852 183.261C65.3626 186.063 75.9718 214.437 75.9718 214.437L88.2582 212.928C88.2582 212.928 81.9605 180.028 81.7449 179.381C81.5293 178.734 85.9673 142.073 85.9673 142.073" fill="#263238"/>
<path d="M73.6809 129.355C73.6809 129.355 66.1366 131.726 65.921 135.174C65.7054 138.624 63.2078 180.458 64.2852 183.261C65.3626 186.063 75.9718 214.437 75.9718 214.437L88.2582 212.928C88.2582 212.928 81.9605 180.028 81.7449 179.381C81.5293 178.734 85.9673 142.073 85.9673 142.073" stroke="#263238" stroke-miterlimit="10" stroke-linecap="round" stroke-linejoin="round"/>
<path d="M84.5213 152.602L81.7449 179.38L84.3937 196.019" stroke="white" stroke-miterlimit="10" stroke-linecap="round" stroke-linejoin="round"/>
<path d="M84.9464 148.502L84.7986 149.926" stroke="white" stroke-miterlimit="10" stroke-linecap="round" stroke-linejoin="round"/>
<path d="M65.0558 144.358L64.2271 169.499" stroke="white" stroke-miterlimit="10" stroke-linecap="round" stroke-linejoin="round"/>
<path d="M93.2351 191.624L101.522 191.323L102.265 194.305L88.5378 195.19" stroke="white" stroke-miterlimit="10" stroke-linecap="round" stroke-linejoin="round"/>
<path d="M86.3274 191.875L90.7419 191.715" stroke="white" stroke-miterlimit="10" stroke-linecap="round" stroke-linejoin="round"/>
<path d="M71.4097 126.678L86.6137 135.606L91.7869 135.39L89.8471 137.761L99.8644 145.74" stroke="white" stroke-miterlimit="10" stroke-linecap="round" stroke-linejoin="round"/>
<path d="M6.42871 255.993H262.065" stroke="#263238" stroke-miterlimit="10"/>
<path d="M78.6716 25.2134V63.0638" stroke="#263238" stroke-miterlimit="10"/>
<path d="M136.813 25.2134V63.0638" stroke="#263238" stroke-miterlimit="10"/>
<path d="M194.954 25.2134V63.0638" stroke="#263238" stroke-miterlimit="10"/>
</svg>
