<svg width="428" height="256" viewBox="0 0 428 256" fill="none" xmlns="http://www.w3.org/2000/svg">
<g clip-path="url(#clip0_258_198)">
<path d="M307.225 255.44H127.662V71.1195C127.662 31.904 159.552 -3.8147e-06 198.749 -3.8147e-06H236.138C275.336 -3.8147e-06 307.225 31.904 307.225 71.1195V255.44Z" fill="#F2F2F2"/>
<path d="M269.837 255.44H127.662V71.1195C127.623 56.093 132.379 41.4463 141.238 29.3119C141.564 28.8666 141.89 28.427 142.226 27.9923C146.511 22.3697 151.61 17.418 157.356 13.3005C157.68 13.0643 158.006 12.8322 158.337 12.6C163.144 9.27163 168.345 6.55074 173.82 4.49928C174.145 4.37599 174.476 4.25247 174.807 4.13398C179.758 2.36612 184.891 1.15515 190.111 0.523415C190.434 0.479193 190.766 0.444589 191.099 0.409984C196.185 -0.134103 201.315 -0.134103 206.401 0.409984C206.732 0.444589 207.065 0.479189 207.392 0.523888C212.61 1.15566 217.742 2.36649 222.692 4.13401C223.023 4.25249 223.354 4.37601 223.68 4.49953C229.088 6.52512 234.227 9.2054 238.983 12.4806C239.314 12.7077 239.644 12.9398 239.97 13.172C243.191 15.4718 246.215 18.0339 249.014 20.8322C251.258 23.0767 253.35 25.4693 255.274 27.9938C255.609 28.4271 255.934 28.8666 256.26 29.3112C265.12 41.4458 269.876 56.0927 269.837 71.1195V255.44Z" fill="#CCCCCC"/>
<path d="M258.276 173C262.623 173 266.147 169.474 266.147 165.125C266.147 160.776 262.623 157.25 258.276 157.25C253.929 157.25 250.405 160.776 250.405 165.125C250.405 169.474 253.929 173 258.276 173Z" fill="#865DFF"/>
<path d="M292.515 249.919H286.484L283.615 226.645L292.516 226.645L292.515 249.919Z" fill="#FFB8B8"/>
<path d="M282.176 248.195H293.807V255.522H274.852C274.852 254.559 275.042 253.607 275.41 252.718C275.778 251.829 276.317 251.021 276.997 250.341C277.677 249.66 278.485 249.121 279.373 248.752C280.262 248.384 281.214 248.195 282.176 248.195Z" fill="#2F2E41"/>
<path d="M322.524 249.919H316.493L313.624 226.645L322.525 226.645L322.524 249.919Z" fill="#FFB8B8"/>
<path d="M312.185 248.195H323.817V255.522H304.861C304.861 254.559 305.051 253.607 305.419 252.718C305.787 251.829 306.326 251.021 307.006 250.341C307.686 249.66 308.494 249.121 309.382 248.752C310.271 248.384 311.223 248.195 312.185 248.195Z" fill="#2F2E41"/>
<path d="M262.26 166.685C261.826 166.046 261.537 165.319 261.414 164.556C261.292 163.792 261.338 163.012 261.549 162.268C261.761 161.525 262.133 160.837 262.639 160.253C263.145 159.669 263.773 159.203 264.478 158.888L284.981 102.353L295.07 107.861L271.66 161.888C272.111 163.109 272.098 164.452 271.624 165.664C271.15 166.876 270.249 167.872 269.09 168.464C267.931 169.055 266.596 169.201 265.337 168.873C264.078 168.545 262.983 167.767 262.26 166.685Z" fill="#FFB8B8"/>
<path d="M319.444 177.308C318.773 176.924 318.196 176.397 317.751 175.765C317.306 175.133 317.005 174.411 316.87 173.65C316.734 172.889 316.767 172.108 316.965 171.361C317.164 170.614 317.524 169.92 318.02 169.327L311.669 109.523L323.15 110.048L325.79 168.873C326.73 169.772 327.307 170.986 327.412 172.283C327.518 173.58 327.144 174.871 326.362 175.911C325.58 176.95 324.443 177.667 323.168 177.925C321.893 178.182 320.568 177.963 319.444 177.308Z" fill="#FFB8B8"/>
<path d="M301.128 91.8813C307.801 91.8813 313.211 86.4691 313.211 79.7929C313.211 73.1167 307.801 67.7045 301.128 67.7045C294.455 67.7045 289.045 73.1167 289.045 79.7929C289.045 86.4691 294.455 91.8813 301.128 91.8813Z" fill="#FFB8B8"/>
<path d="M319.367 163.707H282.939L282.983 163.424C283.048 163 289.475 120.88 284.735 107.101C284.259 105.747 284.301 104.264 284.852 102.939C285.404 101.614 286.425 100.54 287.721 99.9232H287.721C294.496 96.7312 307.501 92.8008 318.478 102.339C320.093 103.766 321.355 105.549 322.162 107.548C322.97 109.546 323.302 111.705 323.132 113.854L319.367 163.707Z" fill="#865DFF"/>
<path d="M289.935 127.105L273.535 123.776L281.223 105.551C281.683 103.786 282.824 102.275 284.395 101.351C285.967 100.426 287.842 100.163 289.607 100.619C291.373 101.075 292.885 102.213 293.813 103.783C294.741 105.353 295.009 107.228 294.557 108.995L289.935 127.105Z" fill="#865DFF"/>
<path d="M310.94 133.285L309.954 110.674C309.206 106.424 311.638 102.405 315.379 101.749C319.12 101.094 322.774 104.042 323.525 108.324L327.231 129.452L310.94 133.285Z" fill="#865DFF"/>
<path d="M318.155 161C324.016 183.333 324.655 211.728 323.074 242.701L315.203 241.717L300.936 182.656L293.065 242.701L284.21 242.209C281.564 209.711 278.989 181.812 283.226 163.461L318.155 161Z" fill="#2F2E41"/>
<path d="M309.089 89.1351C306.835 91.5374 302.649 90.2478 302.355 86.966C302.332 86.7113 302.334 86.4548 302.36 86.2004C302.512 84.7467 303.351 83.4269 303.15 81.892C303.105 81.51 302.962 81.146 302.737 80.8344C300.941 78.428 296.724 81.9107 295.029 79.7323C293.989 78.3965 295.211 76.2934 294.414 74.8004C293.361 72.8299 290.242 73.802 288.287 72.7229C286.111 71.5222 286.241 68.1824 287.674 66.151C289.42 63.6736 292.483 62.3516 295.507 62.1611C298.531 61.9706 301.535 62.7885 304.358 63.8893C307.567 65.1401 310.748 66.8687 312.722 69.6909C315.123 73.1229 315.354 77.737 314.153 81.7501C313.423 84.1913 310.93 87.1735 309.089 89.1351Z" fill="#2F2E41"/>
<path d="M413.232 255.756H50.0257C49.8707 255.756 49.7221 255.694 49.6126 255.584C49.5031 255.474 49.4417 255.325 49.4417 255.17C49.4417 255.015 49.5031 254.866 49.6126 254.757C49.7221 254.647 49.8707 254.585 50.0257 254.584H413.232C413.387 254.585 413.536 254.647 413.645 254.757C413.755 254.866 413.816 255.015 413.816 255.17C413.816 255.325 413.755 255.474 413.645 255.584C413.536 255.694 413.387 255.756 413.232 255.756Z" fill="white"/>
<path d="M230.726 202.038H166.772C165.93 202.043 165.12 201.713 164.521 201.121C163.922 200.529 163.581 199.724 163.575 198.881V56.0664C163.581 55.2238 163.922 54.4181 164.521 53.8262C165.12 53.2343 165.93 52.9044 166.772 52.909H230.726C231.569 52.9044 232.378 53.2343 232.978 53.8262C233.577 54.4181 233.918 55.2238 233.924 56.0664V198.881C233.918 199.724 233.577 200.529 232.978 201.121C232.378 201.713 231.569 202.043 230.726 202.038Z" fill="white"/>
<path d="M233.924 99.1193H163.575V100.104H233.924V99.1193Z" fill="#CCCCCC"/>
<path d="M234.17 155.282H163.821V156.266H234.17V155.282Z" fill="#CCCCCC"/>
<path d="M186.697 52.909H185.713V202.531H186.697V52.909Z" fill="#CCCCCC"/>
<path d="M211.294 52.909H210.31V202.531H211.294V52.909Z" fill="#CCCCCC"/>
</g>
<defs>
<clipPath id="clip0_258_198">
<rect width="428" height="256" fill="white"/>
</clipPath>
</defs>
</svg>
