<svg width="221" height="154" viewBox="0 0 221 154" fill="none" xmlns="http://www.w3.org/2000/svg">
<path d="M45.7399 65.428C46.0979 64.75 46.4719 64.079 46.8679 63.419C40.7709 61.772 34.6649 60.149 28.5449 58.569C27.7899 58.374 26.8579 58.693 26.0079 58.773C26.6229 59.357 27.1149 60.253 27.8729 60.476C33.1919 62.043 38.5629 63.483 43.9249 64.94C44.5269 65.105 45.1329 65.267 45.7399 65.428Z" fill="#F6F2E9"/>
<path d="M175.991 62.5279C179.695 61.4439 183.397 60.355 187.09 59.244C187.803 59.029 188.268 58.1999 188.848 57.6559C188.026 57.5349 187.106 57.1419 186.399 57.3339C182.334 58.4389 178.281 59.579 174.232 60.727C174.83 61.317 175.417 61.9179 175.991 62.5279Z" fill="#F6F2E9"/>
<path d="M82.403 35.856C83.07 35.404 83.778 34.9799 84.516 34.5789C82.408 30.6079 80.292 26.6409 78.125 22.6949C77.796 22.0949 76.789 21.7719 76.097 21.3199C76.039 22.0569 75.671 22.9109 75.973 23.5139C78.045 27.6539 80.232 31.752 82.403 35.856Z" fill="#F6F2E9"/>
<path d="M134.945 29.528C136.109 27.176 137.268 24.822 138.37 22.449C138.591 21.973 138.229 21.2951 138.137 20.7101C137.823 20.6791 137.51 20.649 137.196 20.618C136.633 21.407 135.956 22.152 135.525 22.992C134.463 25.06 133.414 27.1331 132.367 29.2061C133.231 29.2951 134.09 29.402 134.945 29.528Z" fill="#F6F2E9"/>
<path d="M105.564 8.715C105.541 6.383 105.428 4.048 105.555 1.722C105.587 1.132 106.386 0.573 106.833 0C107.286 0.573 108.114 1.13599 108.133 1.71899C108.286 6.52199 108.335 11.328 108.278 16.132C108.271 16.709 107.443 17.278 106.995 17.851C106.543 17.279 105.74 16.725 105.699 16.132C105.53 13.665 105.589 11.188 105.564 8.715Z" fill="#F6F2E9"/>
<path d="M125.653 9.63295C125.256 11.6919 124.982 13.371 124.601 15.032C123.712 18.906 122.825 22.782 121.792 26.628C121.647 27.167 120.689 27.542 120.107 27.994C119.845 27.414 119.258 26.78 119.373 26.262C120.583 20.787 121.88 15.326 123.24 9.87695C123.36 9.39595 124.087 9.02696 124.532 8.60596C124.974 9.01096 125.418 9.41795 125.653 9.63295Z" fill="#F6F2E9"/>
<path d="M88.168 9.92801C88.378 9.70301 88.748 9.30701 89.119 8.91101C89.622 9.26301 90.459 9.54602 90.577 9.97702C92.101 15.538 93.549 21.114 94.916 26.705C95.021 27.135 94.362 27.703 94.058 28.207C93.494 27.813 92.56 27.496 92.424 27.012C91.29 22.969 90.292 18.898 89.277 14.831C88.898 13.314 88.585 11.785 88.168 9.92801Z" fill="#F6F2E9"/>
<path d="M27.052 40.505C28.971 41.47 30.71 42.365 32.472 43.226C36.285 45.088 40.139 46.89 43.904 48.822C44.585 49.171 44.921 50.021 45.417 50.64C44.467 50.626 43.339 50.897 42.596 50.551C37.451 48.154 32.368 45.657 27.319 43.112C26.656 42.778 26.255 42.014 25.857 41.39C25.81 41.317 26.557 40.866 27.052 40.505Z" fill="#F6F2E9"/>
<path d="M187.482 39.457C187.836 39.62 188.597 39.8831 188.57 39.9731C188.408 40.5221 188.234 41.2511 187.76 41.5171C185.103 43.0071 182.366 44.392 179.643 45.794C177.135 47.085 174.657 48.432 172.064 49.582C171.305 49.919 170.196 49.668 169.248 49.687C169.737 49.062 170.064 48.2101 170.741 47.8491C175.786 45.1621 180.899 42.5681 186 39.9601C186.412 39.7491 186.902 39.65 187.482 39.457Z" fill="#F6F2E9"/>
<path d="M148.489 33.516C149.579 32.171 150.672 30.827 151.736 29.467C152.147 28.942 151.869 28.014 151.91 27.273C151.522 27.217 151.134 27.16 150.746 27.104C149.257 28.918 147.767 30.73 146.279 32.544C147.028 32.846 147.764 33.171 148.489 33.516Z" fill="#F6F2E9"/>
<path d="M71.784 40.958C71.852 41.034 71.943 41.094 72.044 41.148C72.66 40.817 73.289 40.501 73.915 40.181C73.88 40.053 73.832 39.933 73.751 39.833C71.304 36.85 68.753 33.93 66.218 31.001C65.26 29.895 64.255 28.819 63.27 27.728C61.433 28.655 61.863 29.521 62.704 30.491C65.731 33.979 68.688 37.515 71.784 40.958Z" fill="#F6F2E9"/>
<path d="M199.25 87.677C196.321 87.388 193.374 87.141 190.331 86.897C190.431 87.224 190.541 87.547 190.636 87.877C190.744 88.252 190.772 88.634 190.747 89.015C193.529 89.261 196.313 89.489 199.099 89.693C199.724 89.739 200.406 89.208 201.062 88.944C200.46 88.504 199.901 87.741 199.25 87.677Z" fill="#F6F2E9"/>
<path d="M33.632 89.432C27.777 90.009 21.925 90.6121 16.062 91.1181C15.548 91.1621 14.961 90.5751 14.408 90.2801C14.792 89.8981 15.133 89.2271 15.568 89.1791C21.181 88.5491 26.804 87.9701 32.438 87.5071C32.923 87.4671 33.508 88.344 34.047 88.794C33.909 89.007 33.771 89.219 33.632 89.432Z" fill="#F6F2E9"/>
<path d="M43.7569 31.6379C44.4409 31.9039 45.2449 32.0489 45.7899 32.4539C49.4729 35.1869 53.1369 37.9419 56.7089 40.7809C57.2169 41.1849 57.2009 42.081 57.4279 42.75C56.6249 42.596 55.6129 42.657 55.0539 42.252C51.4439 39.637 47.8989 36.9529 44.4219 34.2079C43.7839 33.7039 43.5559 32.812 43.1389 32.099C43.3449 31.945 43.5509 31.7919 43.7569 31.6379Z" fill="#F6F2E9"/>
<path d="M159.465 41.5829C163.219 38.6139 166.975 35.647 170.661 32.616C170.981 32.353 170.739 31.5799 170.759 31.0439C170.107 31.1199 169.274 31.003 168.834 31.308C167.318 32.36 165.95 33.569 164.506 34.7C162.287 36.44 160.022 38.138 157.852 39.922C158.413 40.461 158.948 41.0169 159.465 41.5829Z" fill="#F6F2E9"/>
<path d="M40.636 74.4409C39.027 74.2769 37.439 74.123 35.903 73.965C35.013 73.972 34.335 73.884 33.714 74.008C33.108 74.129 32.559 74.4659 31.985 74.7079C32.475 75.1369 32.92 75.8859 33.463 75.9439C35.502 76.1619 37.544 76.358 39.589 76.534C39.928 75.832 40.27 75.1319 40.636 74.4409Z" fill="#F6F2E9"/>
<path d="M139.011 19.443C138.724 18.46 138.206 17.7349 138.427 17.2719C139.943 14.0869 141.567 10.938 143.279 7.82796C143.553 7.32996 144.442 7.08395 145.047 6.72095C145.186 7.33595 145.637 8.05595 145.414 8.54895C143.961 11.76 142.385 14.931 140.781 18.089C140.58 18.483 139.976 18.723 139.011 19.443Z" fill="#F6F2E9"/>
<path d="M152.777 26.127C153.068 25.011 153.037 24.327 153.398 23.878C155.619 21.116 157.894 18.386 160.244 15.705C160.589 15.312 161.425 15.24 162.034 15.02C162.087 15.626 162.452 16.411 162.145 16.81C159.945 19.669 157.648 22.475 155.274 25.227C154.91 25.649 153.986 25.711 152.777 26.127Z" fill="#F6F2E9"/>
<path d="M69.449 7.10303C69.86 7.57503 70.377 8.00402 70.665 8.52702C72.344 11.571 74.011 14.623 75.562 17.716C75.759 18.11 75.255 18.766 75.076 19.3C74.457 19.083 73.484 19.01 73.275 18.627C71.544 15.446 69.912 12.223 68.369 8.97102C68.138 8.48402 68.524 7.77803 68.625 7.17303C68.9 7.15003 69.175 7.12703 69.449 7.10303Z" fill="#F6F2E9"/>
<path d="M52.465 15.589C52.892 15.88 53.412 16.109 53.732 16.471C56.095 19.146 58.463 21.819 60.707 24.568C61.067 25.009 60.815 25.824 60.845 26.466C60.137 26.259 59.149 26.239 58.767 25.814C56.378 23.156 54.077 20.435 51.871 17.662C51.503 17.2 51.74 16.379 51.698 15.724C51.953 15.679 52.209 15.634 52.465 15.589Z" fill="#F6F2E9"/>
<path d="M28.7689 75.626C24.3009 75.22 19.8289 74.842 15.3719 74.365C14.9499 74.32 14.6169 73.66 14.2419 73.286C14.7229 72.988 15.2289 72.407 15.6799 72.437C19.6919 72.702 23.7009 73.028 27.6919 73.465C28.2939 73.531 28.7969 74.265 29.3459 74.69C29.1539 75.002 28.9609 75.314 28.7689 75.626Z" fill="#F6F2E9"/>
<path d="M185.814 73.483C186.355 73.056 186.846 72.326 187.446 72.251C191.398 71.757 195.37 71.365 199.347 71.054C199.827 71.016 200.379 71.663 200.897 71.992C200.488 72.342 200.12 72.949 199.665 73.003C195.246 73.527 190.812 73.957 186.382 74.415C186.193 74.104 186.003 73.794 185.814 73.483Z" fill="#F6F2E9"/>
<path d="M52.6999 55.6841C53.2279 55.1081 53.7589 54.5351 54.3159 53.9771C53.3109 53.4551 52.3049 52.935 51.3009 52.411C50.3989 51.94 49.4799 51.493 48.4339 50.967C48.0999 51.222 47.4879 51.475 47.4799 51.742C47.4649 52.226 47.6359 52.952 48.0309 53.17C49.5759 54.022 51.1329 54.8601 52.6999 55.6841Z" fill="#F6F2E9"/>
<path d="M61.8389 47.5641C62.4809 47.0911 63.1249 46.621 63.7879 46.164C63.2609 45.762 62.7359 45.359 62.2099 44.957C61.8019 44.646 61.2709 44.454 60.6859 44.149C60.2789 44.436 59.6099 44.7361 59.6519 44.9091C59.7899 45.4801 60.0329 46.147 60.5059 46.524C60.9449 46.875 61.3959 47.2161 61.8389 47.5641Z" fill="#F6F2E9"/>
<path d="M127.447 2.76694C127.067 4.13794 126.93 5.15193 126.477 6.04693C126.255 6.48593 125.449 6.70394 124.907 7.02194C124.676 6.55094 124.235 6.07294 124.257 5.61194C124.305 4.63094 124.45 3.61093 124.845 2.70193C125.034 2.26593 125.893 1.79294 126.432 1.80694C126.851 1.81694 127.244 2.55694 127.447 2.76694Z" fill="#F6F2E9"/>
<path d="M89.5719 6.46696C89.5099 6.54396 89.2369 7.19096 88.9169 7.20896C88.4189 7.23696 87.5899 6.94197 87.4279 6.59797C86.9119 5.50797 86.5389 4.34396 86.3369 3.17996C86.2779 2.83996 87.0539 2.04096 87.3129 2.08196C87.8969 2.17496 88.6969 2.57197 88.8689 3.00497C89.2539 3.97797 89.3099 5.04796 89.5719 6.46696Z" fill="#F6F2E9"/>
<path d="M19.637 55.606C21.103 56.492 22.337 57.239 23.572 57.986C23.026 58.265 22.338 58.8809 21.959 58.7629C20.594 58.3369 19.332 57.6629 18.031 57.0819C18.451 56.6959 18.871 56.31 19.637 55.606Z" fill="#F6F2E9"/>
<path d="M192.84 58.075C192.07 57.361 191.651 56.973 191.231 56.584C192.612 55.988 193.963 55.325 195.398 54.85C195.691 54.753 196.297 55.358 196.759 55.64C195.529 56.404 194.299 57.169 192.84 58.075Z" fill="#F6F2E9"/>
<path d="M38.954 26.131C39.964 27.349 40.94 28.457 41.793 29.63C41.916 29.8 41.452 30.577 41.259 30.577C40.532 30.578 39.564 30.58 39.129 30.202C38.301 29.482 37.746 28.516 37.179 27.605C37.123 27.517 37.774 27.099 38.954 26.131Z" fill="#F6F2E9"/>
<path d="M177.81 27.205C176.179 28.221 174.886 29.0589 173.522 29.7989C173.44 29.8429 172.789 29.105 172.402 28.731C173.631 27.789 174.84 26.825 176.134 25.955C176.221 25.897 176.959 26.562 177.81 27.205Z" fill="#F6F2E9"/>
<path d="M39.8 92.9439C50.229 51.4169 89.536 26.9159 124.493 34.1899C151.064 39.7189 172.689 63.1009 178.645 92.9439C178.149 60.2409 152.925 33.54 122.628 28.681C84.9891 22.643 42.345 50.7709 39.8 92.9439Z" fill="#F6F2E9"/>
<path d="M77.0339 94.731C77.0329 94.8 77.0299 94.8749 77.0269 94.9489H95.8339V82.93C98.8899 82.93 101.7 82.929 104.51 82.93C110.394 82.933 116.278 82.935 122.163 82.942C123.369 82.943 124.451 83.03 124.428 84.715C124.382 88.067 124.408 91.4269 124.412 94.9489H143.277V72.2419C144.78 72.1149 146.032 72.009 147.585 71.878C144.038 66.349 140.737 61.1319 137.333 55.9839C136.853 55.2579 135.922 54.753 135.102 54.34C127.452 50.482 119.757 46.711 112.134 42.801C110.608 42.018 109.423 42.024 107.914 42.796C100.206 46.735 92.4409 50.5649 84.7039 54.4489C84.1189 54.7419 83.4019 55.0309 83.0729 55.5349C79.5579 60.9119 76.1089 66.3329 72.4969 71.9669C74.1909 72.0599 75.4169 72.128 77.0699 72.219C77.0699 79.916 77.1049 87.324 77.0339 94.731ZM106.68 59.568H113.388V66.068H106.68V59.568Z" fill="#F6F2E9"/>
<path d="M147.442 89.241C147.291 87.7 146.304 86.241 145.689 84.746C143.127 87.861 144.519 90.412 146.13 92.946C145.182 93.819 144.306 94.626 143.188 95.656C142.949 92.799 142.759 90.195 140.317 88.48C139.036 91.56 139.427 94.157 141.471 96.491C141.068 96.959 140.724 97.359 140.64 97.457C141.612 97.654 142.684 97.662 143.553 98.087C145.835 99.203 148.029 99.325 150.259 98.379C150.334 98.094 150.408 97.81 150.483 97.525C148.64 96.752 146.796 95.979 144.872 95.172C146.242 93.286 146.214 93.361 148.545 94.229C150.693 95.029 152.777 94.856 154.687 92.998C153.194 92.262 151.671 91.696 150.098 91.439C148.694 91.211 147.632 91.175 147.442 89.241Z" fill="#F6F2E9"/>
<path d="M160.206 78.837C160.255 78.159 160.325 77.481 160.34 76.802C160.371 75.419 160.369 74.035 160.38 72.652C160.143 72.618 159.905 72.585 159.668 72.551C157.742 74.209 156.644 76.26 157.045 78.962C157.221 80.15 157.287 81.177 155.98 81.235C155.461 79.347 154.978 77.589 154.494 75.832C152.392 78.171 151.923 80.441 152.966 82.99C153.647 84.653 153.552 84.692 151.967 85.572C151.383 83.844 150.785 82.075 150.076 79.978C147.816 82.985 147.869 85.198 149.938 88.32C149.658 88.853 149.36 89.419 148.83 90.429C149.708 89.754 150.193 89.381 150.676 89.009C153.215 90.837 155.787 91.091 158.615 89.747C157.118 87.107 154.473 87.492 151.832 86.994C152.677 86.05 153.283 85.374 153.934 84.647C156.488 86.224 159.031 86.984 161.779 85.77C161.874 85.526 161.968 85.281 162.063 85.037C160.042 84.119 158.022 83.201 156.008 82.286C156.846 81.17 157.693 80.873 158.994 82.053C160.724 83.622 163.608 83.735 166.151 82.289C164.503 81.412 163.125 80.706 161.777 79.948C161.238 79.645 160.756 79.24 160.252 78.875C160.265 78.864 160.278 78.854 160.291 78.843C160.263 78.84 160.235 78.84 160.206 78.837Z" fill="#F6F2E9"/>
<path d="M169.333 74.023C166.902 73.709 164.981 74.616 163.292 76.305C162.369 77.228 161.301 78.006 160.292 78.843C164.999 79.316 168.878 77.279 169.333 74.023Z" fill="#F6F2E9"/>
<path d="M69.243 90.614C67.724 90.915 66.369 92.0389 64.941 92.7979C68.292 95.0439 70.694 93.409 73.059 91.559C74.021 92.417 74.909 93.21 76.044 94.222C73.224 94.738 70.651 95.182 69.183 97.78C72.373 98.755 74.92 98.111 77.043 95.849C77.548 96.204 77.98 96.5079 78.086 96.5819C78.187 95.5959 78.091 94.5279 78.429 93.6219C79.316 91.2419 79.224 89.0459 78.064 86.9189C77.773 86.8729 77.483 86.826 77.192 86.78C76.603 88.69 76.013 90.6 75.398 92.594C73.387 91.415 73.464 91.4349 74.101 89.0309C74.688 86.8149 74.312 84.7579 72.276 83.0389C71.69 84.5959 71.274 86.167 71.172 87.758C71.081 89.175 71.149 90.236 69.243 90.614Z" fill="#F6F2E9"/>
<path d="M57.641 78.927C56.961 78.945 56.279 78.941 55.602 78.992C54.223 79.096 52.846 79.234 51.468 79.357C51.458 79.597 51.447 79.836 51.437 80.076C53.275 81.831 55.423 82.723 58.073 82.061C59.238 81.77 60.254 81.604 60.439 82.899C58.61 83.6 56.909 84.253 55.207 84.905C57.74 86.768 60.045 87.014 62.48 85.727C64.069 84.887 64.117 84.978 65.148 86.469C63.485 87.219 61.783 87.987 59.766 88.897C62.979 90.852 65.176 90.584 68.082 88.22C68.64 88.447 69.233 88.688 70.289 89.117C69.532 88.31 69.113 87.863 68.696 87.418C70.268 84.713 70.269 82.129 68.655 79.445C66.174 81.192 66.816 83.788 66.578 86.465C65.556 85.716 64.824 85.18 64.037 84.603C65.357 81.907 65.866 79.302 64.389 76.686C64.137 76.616 63.884 76.545 63.632 76.475C62.916 78.576 62.199 80.676 61.485 82.77C60.292 82.045 59.915 81.231 60.962 79.821C62.354 77.946 62.185 75.065 60.498 72.676C59.786 74.402 59.218 75.842 58.595 77.258C58.346 77.824 57.99 78.343 57.676 78.881C57.664 78.869 57.652 78.857 57.64 78.845C57.639 78.87 57.642 78.898 57.641 78.927Z" fill="#F6F2E9"/>
<path d="M51.959 70.314C51.884 72.764 52.975 74.587 54.82 76.103C55.829 76.932 56.708 77.9179 57.639 78.8409C57.651 74.1099 55.245 70.449 51.959 70.314Z" fill="#F6F2E9"/>
<path d="M193.181 120.66C193.184 123.273 193.188 125.886 193.184 128.499C193.169 137.396 192.244 137.975 183.339 136.717C162.951 133.837 142.601 130.285 122.105 128.662C93.9869 126.434 66.156 130.131 38.651 136.172C36.741 136.591 34.789 136.82 32.857 137.139C28.404 137.875 26.327 136.076 26.399 131.478C26.504 124.73 26.374 117.978 26.367 111.228C26.361 105.662 29.072 102.473 34.552 101.17C67.587 93.315 101.045 90.2589 134.855 93.4099C150.356 94.8549 165.715 97.886 181.117 100.331C191.834 102.032 193.252 103.858 193.18 114.78C193.167 116.74 193.178 118.7 193.181 120.66Z" fill="#F6F2E9"/>
<path d="M185.528 141.571C188.489 141.784 193.521 141.711 195.861 138.571C197.573 136.273 196.918 133.574 196.581 127.835C196.38 124.412 196.263 119.411 196.772 113.205C204.542 118.177 212.312 123.15 220.082 128.122C215.966 129.863 211.85 131.605 207.734 133.346C209.792 139.837 211.85 146.328 213.908 152.818C204.449 149.07 194.988 145.32 185.528 141.571Z" fill="#F6F2E9"/>
<path d="M34.554 142.217C31.593 142.43 26.561 142.357 24.221 139.217C22.509 136.919 23.164 134.22 23.501 128.481C23.702 125.058 23.819 120.057 23.31 113.851C15.54 118.823 7.77 123.796 0 128.768C4.116 130.509 8.232 132.251 12.348 133.992C10.29 140.483 8.232 146.974 6.174 153.464C15.633 149.715 25.093 145.966 34.554 142.217Z" fill="#F6F2E9"/>
</svg>
