<svg width="390" height="500" viewBox="0 0 390 500" fill="none" xmlns="http://www.w3.org/2000/svg">
<g filter="url(#filter0_f_226_305)">
<circle cx="195" cy="250" r="150" fill="url(#paint0_radial_226_305)"/>
</g>
<path d="M190.829 188.167C172.908 188.167 158.192 202.363 157.504 220.258C157.467 221.629 157.972 222.959 158.909 223.96C159.846 224.961 161.14 225.552 162.511 225.605C163.881 225.657 165.216 225.168 166.228 224.241C167.239 223.315 167.844 222.028 167.912 220.658C168.141 214.73 170.655 209.121 174.928 205.005C179.201 200.89 184.901 198.589 190.833 198.583C196.836 198.697 202.553 201.161 206.758 205.446C210.963 209.731 213.319 215.495 213.319 221.498C213.32 227.501 210.965 233.265 206.761 237.551C202.557 241.836 196.84 244.302 190.837 244.417H116.875C115.494 244.417 114.169 244.965 113.192 245.942C112.215 246.919 111.667 248.244 111.667 249.625C111.667 251.006 112.215 252.331 113.192 253.308C114.169 254.285 115.494 254.833 116.875 254.833H190.833C195.211 254.833 199.545 253.971 203.589 252.295C207.633 250.62 211.308 248.164 214.403 245.069C217.498 241.973 219.953 238.298 221.628 234.254C223.303 230.21 224.165 225.875 224.165 221.498C224.164 217.121 223.302 212.786 221.626 208.742C219.951 204.698 217.495 201.023 214.4 197.928C211.304 194.833 207.63 192.378 203.585 190.703C199.541 189.028 195.207 188.166 190.829 188.167ZM253.279 236.083C247.677 236.082 242.235 237.951 237.816 241.395C233.397 244.838 230.255 249.659 228.887 255.092L228.487 256.696C228.153 258.036 228.364 259.455 229.075 260.639C229.786 261.824 230.939 262.678 232.279 263.012C233.62 263.347 235.038 263.136 236.223 262.425C237.407 261.714 238.261 260.561 238.596 259.221L238.996 257.621C239.799 254.442 241.64 251.622 244.227 249.607C246.815 247.593 250 246.499 253.279 246.5C257.153 246.498 260.869 248.032 263.613 250.766C266.357 253.499 267.904 257.21 267.917 261.083C267.917 264.951 266.38 268.66 263.645 271.395C260.91 274.13 257.201 275.667 253.333 275.667H116.875C115.494 275.667 114.169 276.215 113.192 277.192C112.215 278.169 111.667 279.494 111.667 280.875C111.667 282.256 112.215 283.581 113.192 284.558C114.169 285.535 115.494 286.083 116.875 286.083H220C226.842 286.083 232.5 291.783 232.5 298.75C232.5 305.533 226.987 311.083 220.325 311.083C218.064 311.083 215.849 310.453 213.926 309.265C212.003 308.076 210.449 306.376 209.437 304.354L209.033 303.546C208.731 302.929 208.309 302.377 207.792 301.924C207.276 301.471 206.674 301.124 206.023 300.904C205.372 300.684 204.683 300.595 203.998 300.643C203.312 300.69 202.642 300.873 202.028 301.18C201.413 301.488 200.865 301.914 200.415 302.434C199.966 302.954 199.624 303.558 199.409 304.211C199.195 304.864 199.111 305.553 199.164 306.238C199.217 306.924 199.404 307.592 199.717 308.204L200.121 309.012C201.997 312.765 204.882 315.921 208.451 318.127C212.02 320.332 216.133 321.5 220.329 321.5C232.867 321.5 242.917 311.163 242.917 298.75C242.918 294.249 241.603 289.846 239.133 286.083H253.333C259.964 286.083 266.323 283.449 271.011 278.761C275.699 274.073 278.333 267.714 278.333 261.083C278.333 247.258 267.067 236.083 253.279 236.083ZM170 329.833C172.21 329.833 174.33 328.955 175.893 327.393C177.455 325.83 178.333 323.71 178.333 321.5C178.333 319.29 177.455 317.17 175.893 315.607C174.33 314.045 172.21 313.167 170 313.167C167.79 313.167 165.67 314.045 164.107 315.607C162.545 317.17 161.667 319.29 161.667 321.5C161.667 323.71 162.545 325.83 164.107 327.393C165.67 328.955 167.79 329.833 170 329.833ZM136.667 200.667C136.667 202.877 135.789 204.996 134.226 206.559C132.663 208.122 130.543 209 128.333 209C126.123 209 124.004 208.122 122.441 206.559C120.878 204.996 120 202.877 120 200.667C120 198.457 120.878 196.337 122.441 194.774C124.004 193.211 126.123 192.333 128.333 192.333C130.543 192.333 132.663 193.211 134.226 194.774C135.789 196.337 136.667 198.457 136.667 200.667ZM253.333 217.333C255.543 217.333 257.663 216.455 259.226 214.893C260.789 213.33 261.667 211.21 261.667 209C261.667 206.79 260.789 204.67 259.226 203.107C257.663 201.545 255.543 200.667 253.333 200.667C251.123 200.667 249.004 201.545 247.441 203.107C245.878 204.67 245 206.79 245 209C245 211.21 245.878 213.33 247.441 214.893C249.004 216.455 251.123 217.333 253.333 217.333Z" fill="#865DFF"/>
<defs>
<filter id="filter0_f_226_305" x="-55" y="0" width="500" height="500" filterUnits="userSpaceOnUse" color-interpolation-filters="sRGB">
<feFlood flood-opacity="0" result="BackgroundImageFix"/>
<feBlend mode="normal" in="SourceGraphic" in2="BackgroundImageFix" result="shape"/>
<feGaussianBlur stdDeviation="50" result="effect1_foregroundBlur_226_305"/>
</filter>
<radialGradient id="paint0_radial_226_305" cx="0" cy="0" r="1" gradientUnits="userSpaceOnUse" gradientTransform="translate(195 250) rotate(90) scale(139.5)">
<stop stop-color="#261752"/>
<stop offset="1" stop-color="#18122A"/>
</radialGradient>
</defs>
</svg>
