<svg width="27" height="28" viewBox="0 0 27 28" fill="none" xmlns="http://www.w3.org/2000/svg">
<g filter="url(#filter0_d_233_57)">
<path d="M10.25 15.625C10.2498 15.9687 10.1552 16.3058 9.97639 16.5993C9.79761 16.8929 9.54158 17.1316 9.23629 17.2895C8.93099 17.4474 8.58817 17.5183 8.24528 17.4945C7.9024 17.4707 7.57265 17.3532 7.29207 17.1547C7.01149 16.9562 6.79087 16.6843 6.65432 16.3689C6.51777 16.0535 6.47055 15.7066 6.51781 15.3662C6.56508 15.0257 6.70501 14.7048 6.92232 14.4385C7.13963 14.1723 7.42595 13.9708 7.75 13.8563V3.125C7.75 2.95924 7.81585 2.80027 7.93306 2.68306C8.05027 2.56585 8.20924 2.5 8.375 2.5C8.54076 2.5 8.69973 2.56585 8.81694 2.68306C8.93415 2.80027 9 2.95924 9 3.125V13.8563C9.36572 13.9856 9.68234 14.2251 9.90622 14.5419C10.1301 14.8587 10.2502 15.2371 10.25 15.625Z" fill="white"/>
<path d="M5.25 3.125C5.25 2.2962 5.57924 1.50134 6.16529 0.915291C6.75135 0.32924 7.5462 0 8.375 0C9.2038 0 9.99866 0.32924 10.5847 0.915291C11.1708 1.50134 11.5 2.2962 11.5 3.125V12.5625C12.1029 13.1779 12.5107 13.9575 12.6723 14.8037C12.8339 15.6499 12.7421 16.525 12.4084 17.3192C12.0746 18.1134 11.5139 18.7914 10.7963 19.2682C10.0788 19.745 9.23649 19.9994 8.375 19.9994C7.51351 19.9994 6.67119 19.745 5.95367 19.2682C5.23615 18.7914 4.67536 18.1134 4.34162 17.3192C4.00789 16.525 3.91606 15.6499 4.07766 14.8037C4.23926 13.9575 4.64708 13.1779 5.25 12.5625V3.125ZM8.375 1.25C7.87772 1.25 7.40081 1.44754 7.04918 1.79917C6.69755 2.15081 6.5 2.62772 6.5 3.125V13.1088L6.29125 13.2963C5.81947 13.7182 5.48691 14.2734 5.33759 14.8884C5.18827 15.5035 5.22923 16.1494 5.45504 16.7406C5.68085 17.3319 6.08087 17.8406 6.60217 18.1996C7.12347 18.5585 7.74146 18.7507 8.37438 18.7507C9.00729 18.7507 9.62529 18.5585 10.1466 18.1996C10.6679 17.8406 11.0679 17.3319 11.2937 16.7406C11.5195 16.1494 11.5605 15.5035 11.4112 14.8884C11.2618 14.2734 10.9293 13.7182 10.4575 13.2963L10.25 13.1075V3.125C10.25 2.62772 10.0525 2.15081 9.70083 1.79917C9.3492 1.44754 8.87228 1.25 8.375 1.25ZM14.625 2.5C14.7908 2.5 14.9497 2.56585 15.0669 2.68306C15.1842 2.80027 15.25 2.95924 15.25 3.125V4.375C15.25 4.54076 15.1842 4.69973 15.0669 4.81694C14.9497 4.93415 14.7908 5 14.625 5C14.4592 5 14.3003 4.93415 14.1831 4.81694C14.0659 4.69973 14 4.54076 14 4.375V3.125C14 2.95924 14.0659 2.80027 14.1831 2.68306C14.3003 2.56585 14.4592 2.5 14.625 2.5ZM19.9288 4.69625C20.0459 4.81345 20.1117 4.9724 20.1117 5.13812C20.1117 5.30385 20.0459 5.4628 19.9288 5.58L19.045 6.465C18.9276 6.58236 18.7685 6.64829 18.6025 6.64829C18.4365 6.64829 18.2774 6.58236 18.16 6.465C18.0426 6.34764 17.9767 6.18847 17.9767 6.0225C17.9767 5.85653 18.0426 5.69736 18.16 5.58L19.045 4.69625C19.1622 4.57908 19.3212 4.51326 19.4869 4.51326C19.6526 4.51326 19.8116 4.57908 19.9288 4.69625ZM14 6.875C14 6.70924 14.0659 6.55027 14.1831 6.43306C14.3003 6.31585 14.4592 6.25 14.625 6.25C15.6196 6.25 16.5734 6.64509 17.2767 7.34835C17.9799 8.05161 18.375 9.00544 18.375 10C18.375 10.9946 17.9799 11.9484 17.2767 12.6517C16.5734 13.3549 15.6196 13.75 14.625 13.75C14.4592 13.75 14.3003 13.6842 14.1831 13.5669C14.0659 13.4497 14 13.2908 14 13.125C14 12.9592 14.0659 12.8003 14.1831 12.6831C14.3003 12.5658 14.4592 12.5 14.625 12.5C15.288 12.5 15.9239 12.2366 16.3928 11.7678C16.8616 11.2989 17.125 10.663 17.125 10C17.125 9.33696 16.8616 8.70107 16.3928 8.23223C15.9239 7.76339 15.288 7.5 14.625 7.5C14.4592 7.5 14.3003 7.43415 14.1831 7.31694C14.0659 7.19973 14 7.04076 14 6.875ZM19.625 10C19.625 9.83424 19.6909 9.67527 19.8081 9.55806C19.9253 9.44085 20.0842 9.375 20.25 9.375H21.5C21.6658 9.375 21.8247 9.44085 21.9419 9.55806C22.0592 9.67527 22.125 9.83424 22.125 10C22.125 10.1658 22.0592 10.3247 21.9419 10.4419C21.8247 10.5592 21.6658 10.625 21.5 10.625H20.25C20.0842 10.625 19.9253 10.5592 19.8081 10.4419C19.6909 10.3247 19.625 10.1658 19.625 10ZM18.16 13.535C18.2181 13.4768 18.287 13.4306 18.363 13.3991C18.4389 13.3676 18.5203 13.3514 18.6025 13.3514C18.6847 13.3514 18.7661 13.3676 18.842 13.3991C18.918 13.4306 18.9869 13.4768 19.045 13.535L19.9288 14.42C20.0426 14.5379 20.1056 14.6958 20.1042 14.8596C20.1028 15.0235 20.037 15.1803 19.9211 15.2961C19.8053 15.412 19.6485 15.4777 19.4846 15.4792C19.3208 15.4806 19.1629 15.4176 19.045 15.3038L18.16 14.42C18.1018 14.3619 18.0556 14.293 18.0241 14.217C17.9926 14.1411 17.9764 14.0597 17.9764 13.9775C17.9764 13.8953 17.9926 13.8139 18.0241 13.738C18.0556 13.662 18.1018 13.5931 18.16 13.535ZM14.625 15C14.7908 15 14.9497 15.0658 15.0669 15.1831C15.1842 15.3003 15.25 15.4592 15.25 15.625V16.875C15.25 17.0408 15.1842 17.1997 15.0669 17.3169C14.9497 17.4342 14.7908 17.5 14.625 17.5C14.4592 17.5 14.3003 17.4342 14.1831 17.3169C14.0659 17.1997 14 17.0408 14 16.875V15.625C14 15.4592 14.0659 15.3003 14.1831 15.1831C14.3003 15.0658 14.4592 15 14.625 15Z" fill="white"/>
</g>
<defs>
<filter id="filter0_d_233_57" x="0" y="0" width="28" height="28" filterUnits="userSpaceOnUse" color-interpolation-filters="sRGB">
<feFlood flood-opacity="0" result="BackgroundImageFix"/>
<feColorMatrix in="SourceAlpha" type="matrix" values="0 0 0 0 0 0 0 0 0 0 0 0 0 0 0 0 0 0 127 0" result="hardAlpha"/>
<feOffset dy="4"/>
<feGaussianBlur stdDeviation="2"/>
<feComposite in2="hardAlpha" operator="out"/>
<feColorMatrix type="matrix" values="0 0 0 0 0 0 0 0 0 0 0 0 0 0 0 0 0 0 0.25 0"/>
<feBlend mode="normal" in2="BackgroundImageFix" result="effect1_dropShadow_233_57"/>
<feBlend mode="normal" in="SourceGraphic" in2="effect1_dropShadow_233_57" result="shape"/>
</filter>
</defs>
</svg>
